<svg width="273.33mm" height="214.49mm" version="1.1" viewBox="0 0 273.33 214.49" xmlns="http://www.w3.org/2000/svg">
 <defs>
  <clipPath id="clipPath858">
   <path d="m0 768h1366v-768h-1366z"/>
  </clipPath>
  <clipPath id="clipPath998">
   <path d="m688.96 277.65c4.156-7.762 16.708-5.556 16.708 1.321l-7.758 13.707c-11.354 0-12.923-7.606-8.95-15.028"/>
  </clipPath>
  <linearGradient id="linearGradient1008" x2="1" gradientTransform="matrix(15.264 -19.175 -19.175 -15.264 689.09 290.51)" gradientUnits="userSpaceOnUse">
   <stop style="stop-color:#484857" offset="0"/>
   <stop style="stop-color:#2e2e2e" offset="1"/>
  </linearGradient>
  <clipPath id="clipPath1018">
   <path d="m0 768h1366v-768h-1366z"/>
  </clipPath>
  <clipPath id="clipPath1030">
   <path d="m744.35 278.97c0-6.877 12.551-9.083 16.706-1.321 3.975 7.422 0.042 15.851-11.312 15.851z"/>
  </clipPath>
  <linearGradient id="linearGradient1040" x2="1" gradientTransform="matrix(12.191 -22.165 -22.165 -12.191 746.06 295.16)" gradientUnits="userSpaceOnUse">
   <stop style="stop-color:#484857" offset="0"/>
   <stop style="stop-color:#2e2e2e" offset="1"/>
  </linearGradient>
  <clipPath id="clipPath1050">
   <path d="m0 768h1366v-768h-1366z"/>
  </clipPath>
  <clipPath id="clipPath1066">
   <path d="m689.9 327.77c-1.802-8.048-0.242-18.935 0.833-28.518l67.18-0.927c1.072 9.803 2.795 21.136 0.934 29.445-2.669 11.932-14.883 22.699-35.271 22.699-20.387 0-31.006-10.767-33.676-22.699"/>
  </clipPath>
  <linearGradient id="linearGradient1076" x2="1" gradientTransform="matrix(54.75 -63.076 -63.076 -54.75 692.43 353.05)" gradientUnits="userSpaceOnUse">
   <stop style="stop-color:#484857" offset="0"/>
   <stop style="stop-color:#2e2e2e" offset="1"/>
  </linearGradient>
  <clipPath id="clipPath1086">
   <path d="m0 768h1366v-768h-1366z"/>
  </clipPath>
  <clipPath id="clipPath1374">
   <path d="m931.92 474.22-80.612-18.176c-5.211-1.174-8.483-6.351-7.308-11.563l36.023-159.76c1.174-5.212 6.351-8.483 11.563-7.309l80.611 18.175c5.211 1.175 8.483 6.353 7.308 11.564l-36.021 159.77c-1.015 4.495-5.006 7.547-9.428 7.547-0.704 0-1.42-0.077-2.136-0.239"/>
  </clipPath>
  <linearGradient id="linearGradient1384" x2="1" gradientTransform="matrix(108.93 -163.54 -163.54 -108.93 857.06 457.93)" gradientUnits="userSpaceOnUse">
   <stop style="stop-color:#484857" offset="0"/>
   <stop style="stop-color:#2e2e2e" offset="1"/>
  </linearGradient>
  <clipPath id="clipPath1394">
   <path d="m0 768h1366v-768h-1366z"/>
  </clipPath>
  <clipPath id="clipPath1478">
   <path d="m872.28 432.46c-1.4-0.316-2.28-1.707-1.965-3.108 0.317-1.401 1.708-2.28 3.108-1.964 1.401 0.316 2.281 1.707 1.964 3.108-0.271 1.208-1.344 2.028-2.532 2.028-0.19 0-0.382-0.021-0.575-0.064"/>
  </clipPath>
  <linearGradient id="linearGradient1488" x2="1" gradientTransform="matrix(5.0721 1.1436 1.1436 -5.0721 870.32 429.36)" gradientUnits="userSpaceOnUse">
   <stop style="stop-color:#ffbf31" offset="0"/>
   <stop style="stop-color:#ff8031" offset="1"/>
  </linearGradient>
  <clipPath id="clipPath1498">
   <path d="m873.8 425.73c-2.364-0.534-3.922-2.792-3.579-5.191l9.04 2.039c-0.616 1.978-2.443 3.266-4.437 3.266-0.338 0-0.681-0.037-1.024-0.114"/>
  </clipPath>
  <linearGradient id="linearGradient1508" x2="1" gradientTransform="matrix(9.0402 2.0383 2.0383 -9.0402 869.75 422.62)" gradientUnits="userSpaceOnUse">
   <stop style="stop-color:#ffbf31" offset="0"/>
   <stop style="stop-color:#ff8031" offset="1"/>
  </linearGradient>
  <clipPath id="clipPath1518">
   <path d="m0 768h1366v-768h-1366z"/>
  </clipPath>
  <clipPath id="clipPath1562">
   <path d="m880.84 394.5c-1.401-0.316-2.28-1.707-1.965-3.108 0.317-1.401 1.708-2.28 3.109-1.964 1.4 0.316 2.279 1.707 1.963 3.108-0.272 1.208-1.345 2.029-2.533 2.028-0.189 0-0.382-0.02-0.574-0.064"/>
  </clipPath>
  <linearGradient id="linearGradient1572" x2="1" gradientTransform="matrix(5.0721 1.1436 1.1436 -5.0721 878.88 391.4)" gradientUnits="userSpaceOnUse">
   <stop style="stop-color:#ffbf31" offset="0"/>
   <stop style="stop-color:#ff8031" offset="1"/>
  </linearGradient>
  <clipPath id="clipPath1582">
   <path d="m882.36 387.77c-2.363-0.533-3.921-2.792-3.579-5.191l9.04 2.039c-0.616 1.977-2.442 3.266-4.436 3.266-0.338 0-0.682-0.037-1.025-0.114"/>
  </clipPath>
  <linearGradient id="linearGradient1592" x2="1" gradientTransform="matrix(9.0402 2.0383 2.0383 -9.0402 878.31 384.66)" gradientUnits="userSpaceOnUse">
   <stop style="stop-color:#ffbf31" offset="0"/>
   <stop style="stop-color:#ff8031" offset="1"/>
  </linearGradient>
  <clipPath id="clipPath1602">
   <path d="m0 768h1366v-768h-1366z"/>
  </clipPath>
  <clipPath id="clipPath1646">
   <path d="m889.29 357.06c-1.401-0.316-2.28-1.707-1.964-3.108s1.706-2.28 3.107-1.964 2.28 1.706 1.964 3.108c-0.272 1.208-1.344 2.028-2.533 2.028-0.189 0-0.381-0.021-0.574-0.064"/>
  </clipPath>
  <linearGradient id="linearGradient1656" x2="1" gradientTransform="matrix(5.0721 1.1436 1.1436 -5.0721 887.32 353.95)" gradientUnits="userSpaceOnUse">
   <stop style="stop-color:#ffbf31" offset="0"/>
   <stop style="stop-color:#ff8031" offset="1"/>
  </linearGradient>
  <clipPath id="clipPath1666">
   <path d="m890.8 350.32c-2.364-0.533-3.922-2.791-3.581-5.19l9.042 2.038c-0.616 1.978-2.443 3.267-4.437 3.267-0.338 0-0.681-0.037-1.024-0.115"/>
  </clipPath>
  <linearGradient id="linearGradient1676" x2="1" gradientTransform="matrix(9.0402 2.0383 2.0383 -9.0402 886.75 347.22)" gradientUnits="userSpaceOnUse">
   <stop style="stop-color:#ffbf31" offset="0"/>
   <stop style="stop-color:#ff8031" offset="1"/>
  </linearGradient>
  <clipPath id="clipPath1686">
   <path d="m0 768h1366v-768h-1366z"/>
  </clipPath>
  <clipPath id="clipPath1730">
   <path d="m897.62 320.09c-1.4-0.316-2.28-1.707-1.964-3.108 0.315-1.4 1.707-2.28 3.107-1.965 1.401 0.316 2.281 1.707 1.964 3.108-0.272 1.209-1.344 2.029-2.532 2.029-0.19 0-0.382-0.021-0.575-0.064"/>
  </clipPath>
  <linearGradient id="linearGradient1740" x2="1" gradientTransform="matrix(5.0721 1.1436 1.1436 -5.0721 895.66 316.98)" gradientUnits="userSpaceOnUse">
   <stop style="stop-color:#ffbf31" offset="0"/>
   <stop style="stop-color:#ff8031" offset="1"/>
  </linearGradient>
  <clipPath id="clipPath1750">
   <path d="m899.14 313.35c-2.364-0.533-3.922-2.792-3.58-5.19l9.041 2.038c-0.616 1.977-2.443 3.267-4.436 3.267-0.339 0-0.682-0.038-1.025-0.115"/>
  </clipPath>
  <linearGradient id="linearGradient1760" x2="1" gradientTransform="matrix(9.0402 2.0383 2.0383 -9.0402 895.09 310.25)" gradientUnits="userSpaceOnUse">
   <stop style="stop-color:#ffbf31" offset="0"/>
   <stop style="stop-color:#ff8031" offset="1"/>
  </linearGradient>
  <clipPath id="clipPath1770">
   <path d="m0 768h1366v-768h-1366z"/>
  </clipPath>
 </defs>
 <g transform="translate(30.076 -10.684)">
  <g transform="matrix(.35278 0 0 -.35278 -207.24 248.1)">
   <g clip-path="url(#clipPath858)">
    <g transform="translate(1006.7 172.15)">
     <path d="m0 0c55.188 13.635 112.32-8.776 183.15 36.833 74.377 47.895 104.4 149.82 77.483 262.58-17.654 73.954-60.84 132.58-141.55 170.61-62.776 29.583-171.88 40.57-279.66 20.997-213.3-38.739-268.22-178.62-248.24-342.59 16.195-132.86 116.96-250.5 246.07-226.37 71.024 13.279 109.74 64.842 162.75 77.939" style="fill:#B6DB7B"/>
    </g>
    <g transform="translate(1068.2 406.09)">
     <path d="M 0,0 V 45.063 C -54.734,75.248 -47.463,183.605 35.286,183.655 128.338,183.711 135.671,46.688 39.324,32.522 31.141,25.933 0,0 0,0" style="fill:#79BA3C"/>
    </g>
    <g transform="translate(1069.1 449.08)">
     <path d="m0 0c-52.892 33.31-40.689 141.59 43.27 136.31 13.044-0.82 24.251-4.104 33.601-9.336-10.397 7.314-23.538 12.079-39.412 12.993-82.612 4.753-96.161-103-43.271-136.31z" style="fill:#ffffff"/>
    </g>
    <g transform="translate(1070.7 524.37)">
     <path d="m0 0c-5.675 11.49-4.326 19.811-0.764 24.761-2.512 1.149-4.272 3.375-4.667 4.093 7.378 3.986 7.258 6.143 10.605 8.374-4.842 2.183-5.764 6.76-5.938 7.838 7.186-0.064 14.898 0.041 27.052 2.701 5.47 1.196 11.31 1.594 17.278 1.261 18.717-1.045 23.382-10.03 24.035-17.32 10.187-5.031 8.712-22.836 3.924-31.684z" style="fill:#ffffff"/>
    </g>
    <g transform="translate(1084.9 465.84)">
     <path d="m0 0c-1.837-1.799-6.325-1.2-6.325-1.2s-12.133-1.283-22.722-4.356c3.322-3.793 10.117-6.626 12.127-9.535-1.069-11.869 0.214-35.823-0.43-44.164-3.704-3.731 40.07 32.116 40.07 32.116s27.551 2.816 44.394 20.138c-4.671 0.612-21.713 4.729-21.713 4.729s-3.007 1.936-4.216 1.985c-1.208 0.048-0.349-5.78-0.611-7.289-0.261-1.509-1.157-2.018-4.754-3.102-3.596-1.084-15.729-3.356-22.188-1.97-6.459 1.385-13.99 5.359-13.99 5.359z" style="fill:#4d6656"/>
    </g>
    <g transform="translate(1059.4 457.54)">
     <path d="m0 0c11.534 3.02 24.089 4.889 24.089 4.889s-0.418 2.178 1.759 3.852l-1.826 0.294c-1.836-1.799-4.823-2.342-4.823-2.342s-11.327-1.591-21.931-4.473z" style="fill:#ffffff"/>
    </g>
    <g transform="translate(1097.5 453.27)">
     <path d="m0 0c-0.071 0.012-12.881 2.913-12.881 2.913s1.271-17.72 2.47-34.451c7.06 6.348 20.748 17.577 20.748 17.577s13.687 1.176 16.245 3.716c0.751 6.551 1.559 13.478 1.613 13.468 2.692-0.505-10.873-3.422-16.803-3.762-5.932-0.34-11.392 0.539-11.392 0.539" style="fill:#1a3c26"/>
    </g>
    <g transform="translate(1084.5 465.84)">
     <path d="m0 0c0.573-2.808-0.287-1.359 0.455-7.46 1.487-0.865 12.928-5.73 22.476-5.694 6.41 0.025 15.411 2.224 18.547 4.338 2.374 4.058-0.312 7.724-0.449 8.423-0.436 2.234-2.356 19.949-2.356 19.949s7.075 6.023 9.818 16.009c1.036 3.771 1.566 6.175 1.566 6.175s6.877-1.172 8.892 1.599c2.015 2.772 4.742 5.892 3.182 8.935-1.562 3.042-1.184 4.877-8.325 6.522-1.967-0.258-6.87 7.855-9.66 23.467-9.577-6.215-25.069-9.065-46.141-1.274-1.313-10.417-7.87-22.233-7.87-22.233s-6.345 1.74-9.59-7.175c-1.238-3.401 1.119-8.258 4.311-9.841 3.193-1.582 7.957 0 7.957 0s2.494-9.641 4.533-12.657c2.04-3.015 6.114-8.989 6.663-9.527 0.549-0.539-0.217-16.238-4.009-19.556" style="fill:#ffffff"/>
    </g>
    <g transform="translate(1105.2 478.35)">
     <path d="m0 0c-7.707 0-14.598 3.008-19.982 8.737-5.128 5.457-8.332 12.851-9.023 20.82-0.06 0.703 0.46 1.323 1.163 1.383 0.699 0.062 1.323-0.459 1.384-1.163 1.178-13.604 11.19-27.765 27.401-27.205 14.531 0.5 25.411 11.443 27.075 27.229 0.074 0.702 0.702 1.21 1.405 1.137 0.701-0.074 1.211-0.703 1.137-1.405-0.837-7.941-4.09-15.225-9.16-20.512-5.387-5.617-12.43-8.73-20.369-9.003-0.345-0.012-0.688-0.018-1.031-0.018" style="fill:#2e2e2e"/>
    </g>
    <g transform="translate(1073.8 505.89)">
     <path d="m0 0c-5.521 0-10.014 4.492-10.014 10.013 0 5.522 4.493 10.014 10.014 10.014 0.324 0 0.649-0.016 0.97-0.047 0.702-0.067 1.217-0.691 1.149-1.394-0.067-0.703-0.691-1.218-1.394-1.15-0.239 0.023-0.483 0.035-0.725 0.035-4.111 0-7.457-3.346-7.457-7.458s3.346-7.457 7.457-7.457c1.121 0 2.197 0.242 3.2 0.719 0.637 0.303 1.4 0.033 1.703-0.605 0.303-0.637 0.033-1.4-0.604-1.703-1.35-0.642-2.795-0.967-4.299-0.967" style="fill:#2e2e2e"/>
    </g>
    <g transform="translate(1138.3 505.89)">
     <path d="m0 0c-1.503 0-2.949 0.325-4.298 0.967-0.638 0.303-0.908 1.066-0.604 1.703 0.302 0.638 1.065 0.909 1.703 0.605 1.003-0.477 2.079-0.719 3.199-0.719 4.112 0 7.457 3.345 7.457 7.457s-3.345 7.458-7.457 7.458c-0.266 0-0.533-0.014-0.795-0.042-0.702-0.074-1.331 0.434-1.405 1.136-0.074 0.703 0.434 1.331 1.137 1.406 0.35 0.037 0.708 0.056 1.063 0.056 5.521 0 10.014-4.492 10.014-10.014 0-5.521-4.493-10.013-10.014-10.013" style="fill:#2e2e2e"/>
    </g>
    <g transform="translate(1093.7 521.39)">
     <path d="m0 0c0-1.836-0.874-3.325-1.951-3.325-1.078 0-1.951 1.489-1.951 3.325 0 1.837 0.873 3.326 1.951 3.326 1.077 0 1.951-1.489 1.951-3.326" style="fill:#2e2e2e"/>
    </g>
    <g transform="translate(1119 521.39)">
     <path d="m0 0c0-1.836 0.874-3.325 1.951-3.325s1.951 1.489 1.951 3.325c0 1.837-0.874 3.326-1.951 3.326s-1.951-1.489-1.951-3.326" style="fill:#2e2e2e"/>
    </g>
    <g transform="translate(1104.7 505.13)">
     <path d="m0 0c-0.062 0-0.124 4e-3 -0.187 0.014-1.486 0.217-4.965 0.727-5.114 4.25-0.108 2.568 1.916 4.162 3.702 5.569l0.097 0.076c1.446 1.139 2.124 3.938 1.909 7.883-0.038 0.705 0.502 1.307 1.206 1.345 0.705 0.037 1.308-0.501 1.347-1.206 0.269-4.938-0.7-8.313-2.88-10.031l-0.098-0.076c-1.731-1.364-2.779-2.276-2.729-3.452 0.045-1.066 0.757-1.511 2.931-1.829 0.698-0.103 1.181-0.751 1.079-1.45-0.093-0.635-0.639-1.093-1.263-1.093" style="fill:#2e2e2e"/>
    </g>
    <g transform="translate(1083 527.39)">
     <path d="M 0,0 C -0.273,0 -0.549,0.087 -0.782,0.268 -1.34,0.701 -1.441,1.504 -1.009,2.062 1.993,5.931 8.978,7.544 13.938,5.513 14.591,5.246 14.904,4.499 14.637,3.846 14.369,3.192 13.622,2.88 12.97,3.147 9.107,4.729 3.296,3.439 1.011,0.495 0.759,0.17 0.382,0 0,0" style="fill:#2e2e2e"/>
    </g>
    <g transform="translate(1127.7 527.39)">
     <path d="m0 0c-0.382 0-0.76 0.17-1.012 0.495-2.284 2.944-8.094 4.234-11.958 2.652-0.652-0.267-1.399 0.046-1.667 0.699-0.267 0.653 0.045 1.4 0.699 1.667 4.96 2.031 11.945 0.419 14.947-3.451 0.432-0.558 0.331-1.361-0.227-1.794-0.233-0.181-0.509-0.268-0.782-0.268" style="fill:#2e2e2e"/>
    </g>
    <g transform="translate(1106.7 492.77)">
     <path d="m0 0c-1.698 0-3.406 0.292-4.994 0.901-0.658 0.253-0.987 0.993-0.735 1.652 0.253 0.659 0.994 0.988 1.652 0.735 3.997-1.536 9.104-0.569 11.627 2.201 0.474 0.522 1.283 0.56 1.805 0.085s0.56-1.284 0.084-1.806c-2.206-2.424-5.795-3.768-9.439-3.768" style="fill:#2e2e2e"/>
    </g>
    <g transform="translate(1085.8 465.77)">
     <path d="M 0,0 C -0.301,0 -0.604,0.106 -0.847,0.321 -1.375,0.789 -1.424,1.597 -0.956,2.126 1.467,4.861 2.077,16.033 1.939,19.208 1.909,19.913 2.456,20.51 3.161,20.54 3.859,20.569 4.463,20.023 4.494,19.318 4.5,19.176 4.667,4.62 0.958,0.431 0.705,0.146 0.354,0 0,0" style="fill:#2e2e2e"/>
    </g>
    <g transform="translate(1126.1 463.88)">
     <path d="m0 0c-0.443 0-0.874 0.231-1.11 0.644-2.755 4.811-3.115 20.682-3.119 20.841-0.014 0.706 0.546 1.29 1.252 1.305h0.028c0.693 0 1.262-0.555 1.277-1.251 0.122-5.925 0.986-16.492 2.78-19.625 0.351-0.613 0.138-1.394-0.474-1.745-0.2-0.114-0.419-0.169-0.634-0.169" style="fill:#2e2e2e"/>
    </g>
    <g transform="translate(1074.6 523.32)">
     <path d="m0 0c-0.342 0-0.683 0.136-0.935 0.406-0.481 0.516-0.453 1.325 0.063 1.806 3.232 3.017 7.539 14.952 7.809 21.644 0.029 0.706 0.629 1.254 1.33 1.226 0.705-0.029 1.254-0.624 1.225-1.33-0.276-6.824-4.589-19.646-8.62-23.408-0.246-0.23-0.56-0.344-0.872-0.344" style="fill:#2e2e2e"/>
    </g>
    <g transform="translate(1137.1 523.44)">
     <path d="m0 0c-0.312 0-0.626 0.114-0.872 0.344-4.078 3.806-9.075 17.459-8.91 24.347 0.016 0.706 0.601 1.262 1.308 1.248 0.706-0.017 1.264-0.603 1.247-1.309-0.068-2.854 0.973-7.59 2.715-12.361 1.722-4.71 3.784-8.563 5.384-10.056 0.516-0.482 0.544-1.291 0.063-1.807-0.252-0.27-0.593-0.406-0.935-0.406" style="fill:#2e2e2e"/>
    </g>
    <g transform="translate(1106 540.61)">
     <path d="m0 0c-1.397 0-2.802 0.057-4.205 0.172-10.264 0.843-15.885 3.488-19.242 5.069l-0.25 0.117c-0.639 0.3-0.913 1.061-0.614 1.701 0.301 0.638 1.063 0.913 1.702 0.612l0.25-0.117c3.202-1.507 8.56-4.029 18.363-4.834 9.885-0.812 19.807 1.415 25.891 5.811 0.572 0.414 1.371 0.285 1.784-0.287 0.414-0.572 0.285-1.371-0.287-1.785-5.677-4.102-14.369-6.459-23.392-6.459" style="fill:#2e2e2e"/>
    </g>
    <g transform="translate(1070.7 523.09)">
     <path d="m0 0c-0.471 0-0.924 0.261-1.146 0.712-6.221 12.595-3.939 20.661-1.443 24.87-2.057 1.304-3.515 3.121-3.963 3.934l-0.621 1.129 1.133 0.612c4.466 2.412 6.043 4.096 7.434 5.58 0.476 0.51 0.939 1.003 1.48 1.494-3.765 2.558-4.694 6.527-4.9 7.81l-0.241 1.495 1.514-0.013c7.37-0.067 14.965 0.088 26.768 2.671 5.491 1.202 11.42 1.635 17.622 1.289 8.71-0.487 15.299-2.725 19.584-6.652 3.158-2.896 5.033-6.639 5.578-11.134 3.035-1.722 5.285-4.678 6.532-8.595 2.571-8.084 0.597-18.448-2.683-24.508-0.335-0.62-1.111-0.852-1.732-0.516-0.621 0.337-0.852 1.112-0.516 1.733 2.949 5.448 4.825 15.191 2.495 22.516-1.132 3.557-3.104 6.052-5.862 7.414l-0.643 0.318-0.064 0.714c-0.875 9.785-8.77 15.372-22.832 16.157-5.971 0.334-11.668-0.081-16.933-1.234-11.187-2.447-18.665-2.762-25.695-2.74 0.571-1.715 1.872-4.05 4.832-5.384l2.106-0.949-1.921-1.28c-1.116-0.744-1.815-1.489-2.623-2.353-1.313-1.402-2.916-3.113-6.8-5.364 0.73-0.823 1.894-1.878 3.307-2.524l1.415-0.647-0.909-1.263c-2.372-3.295-5.413-10.723 0.873-23.448 0.312-0.633 0.052-1.399-0.581-1.712-0.181-0.09-0.375-0.132-0.565-0.132" style="fill:#2e2e2e"/>
    </g>
    <g transform="translate(1087.1 420.78)">
     <path d="m0 0c-0.647 0-1.202 0.49-1.27 1.147-0.213 2.076-0.503 4.582-0.81 7.235-1.456 12.581-3.449 29.811-1.696 37.509 0.156 0.688 0.841 1.119 1.529 0.962s1.12-0.842 0.963-1.53c-1.655-7.27 0.308-24.25 1.743-36.647 0.308-2.662 0.599-5.176 0.813-7.267 0.073-0.702-0.438-1.33-1.14-1.402-0.044-5e-3 -0.088-7e-3 -0.132-7e-3" style="fill:#2e2e2e"/>
    </g>
    <g transform="translate(1124.6 441.75)">
     <path d="m0 0c-0.035 0-0.069 1e-3 -0.104 4e-3 -0.704 0.057-1.228 0.673-1.171 1.376 0.816 10.165 1.703 18.212 2.43 22.079 0.131 0.693 0.798 1.15 1.492 1.02 0.695-0.131 1.151-0.799 1.02-1.493-0.701-3.726-1.597-11.88-2.395-21.81-0.053-0.669-0.613-1.176-1.272-1.176" style="fill:#2e2e2e"/>
    </g>
    <g transform="translate(1152.1 457.56)">
     <path d="m0 0c-0.121 0-0.244 0.018-0.367 0.054-1.069 0.321-2.207 0.643-3.385 0.958-0.423 0.113-7.769 1.893-13.673 3.323-4.494 1.089-8.044 1.949-8.337 2.024-0.684 0.176-1.096 0.872-0.921 1.556s0.872 1.096 1.556 0.921c0.276-0.071 4.176-1.016 8.305-2.016 7.524-1.823 13.313-3.226 13.732-3.339 1.201-0.321 2.364-0.65 3.457-0.978 0.676-0.203 1.06-0.915 0.858-1.591-0.166-0.554-0.675-0.912-1.225-0.912" style="fill:#2e2e2e"/>
    </g>
    <g transform="translate(1056.7 458.82)">
     <path d="m0 0c-0.551 0-1.06 0.359-1.225 0.914-0.201 0.677 0.184 1.388 0.861 1.59 1.542 0.458 2.357 0.671 4.054 1.108 1.881 0.484 4.822 1.112 8.227 1.838 5.618 1.198 12.609 2.689 16.782 3.994 0.674 0.21 1.391-0.165 1.602-0.839s-0.165-1.391-0.839-1.602c-4.286-1.339-11.342-2.844-17.012-4.053-3.377-0.721-6.293-1.343-8.122-1.814-1.709-0.44-2.462-0.636-3.963-1.083-0.122-0.036-0.244-0.053-0.365-0.053" style="fill:#2e2e2e"/>
    </g>
    <g transform="translate(1104.5 451.01)">
     <path d="m0 0c-0.3 0-0.6 2e-3 -0.899 8e-3 -8.26 0.149-15.425 2.308-20.175 6.08-0.553 0.439-0.646 1.243-0.206 1.796 0.438 0.553 1.243 0.645 1.796 0.206 4.312-3.424 10.929-5.387 18.631-5.526 7.392-0.13 15.07 1.467 21.072 4.391 0.635 0.31 1.399 0.045 1.709-0.589 0.308-0.635 0.045-1.4-0.59-1.709-6.108-2.976-13.837-4.657-21.338-4.657" style="fill:#2e2e2e"/>
    </g>
    <g transform="translate(1070.6 513.65)">
     <path d="M 0,0 C -0.418,0 -0.826,0.204 -1.071,0.58 -1.984,1.976 -1.992,3.771 -1.093,5.265 -0.158,6.818 1.562,7.719 3.293,7.561 3.996,7.496 4.514,6.874 4.449,6.17 4.385,5.467 3.762,4.951 3.06,5.015 2.136,5.1 1.426,4.492 1.098,3.946 0.907,3.631 0.525,2.809 1.068,1.978 1.455,1.387 1.289,0.594 0.697,0.208 0.482,0.067 0.239,0 0,0" style="fill:#2e2e2e"/>
    </g>
    <g transform="translate(1141.5 513.65)">
     <path d="m0 0c-0.24 0-0.482 0.067-0.698 0.208-0.591 0.386-0.757 1.178-0.371 1.77 0.543 0.831 0.161 1.653-0.03 1.968-0.328 0.546-1.039 1.154-1.961 1.069-0.703-0.064-1.325 0.452-1.39 1.155-0.065 0.704 0.453 1.326 1.156 1.391 1.729 0.157 3.451-0.743 4.386-2.296 0.899-1.494 0.891-3.289-0.021-4.685-0.245-0.376-0.654-0.58-1.071-0.58" style="fill:#2e2e2e"/>
    </g>
    <g transform="translate(1103.5 588.47)">
     <path d="m0 0h-0.058c-33.553-0.021-58.438-18.908-66.568-50.523-8.74-33.993 4.973-70.823 31.898-85.671l0.662-0.365v-43.091c7.133 5.935 30.383 25.267 37.244 30.791l0.271 0.218 0.345 0.051c50.166 7.376 70.291 47.839 67.76 82.313-2.423 32.995-25.489 66.277-71.554 66.277m-36.623-185.1v47.042c-6.98 3.963-13.148 9.288-18.34 15.834-5.063 6.385-9.088 13.777-11.96 21.973-5.628 16.059-6.401 33.947-2.179 50.369 3.873 15.065 11.694 27.833 22.616 36.924 5.92 4.926 12.72 8.742 20.214 11.342 7.973 2.766 16.793 4.172 26.212 4.177h0.058c21.452 0 39.894-7.255 53.336-20.985 12.04-12.297 19.416-29.223 20.77-47.661 1.433-19.522-3.94-38.62-15.128-53.775-12.505-16.939-31.332-27.723-54.464-31.203-8.477-6.843-38.731-32.035-39.038-32.291z" style="fill:#2e2e2e"/>
    </g>
    <g transform="translate(838.12 306.17)">
     <path d="m0 0-43.088 10.022c-18.965 52.9-100.79 66.978-134.12 11.619-36.155-60.056 9.125-124.37 67.419-125.62 56.297-1.21 69.809 34.626 76.066 71.475 6.78 6.606 33.721 32.504 33.721 32.504" style="fill:#79BA3C"/>
    </g>
    <g transform="translate(664.47 324.16)">
     <path d="m0 0c23.549 39.115 72.077 43.153 104.77 23.737-32.611 23.281-84.46 20.634-109.32-20.667-27.147-45.091-8.383-92.581 27.327-113.98-32.175 22.761-48.531 68.116-22.77 110.91" style="fill:#ffffff"/>
    </g>
   </g>
   <g clip-path="url(#clipPath998)">
    <path d="m688.96 277.65c4.156-7.762 16.708-5.556 16.708 1.321l-7.758 13.707c-11.354 0-12.923-7.606-8.95-15.028" style="fill:url(#linearGradient1008)"/>
   </g>
   <g clip-path="url(#clipPath1018)">
    <g transform="translate(690.76 276.81)">
     <path d="m0 0c-3.89 7.266-2.461 14.704 8.254 15.014l-0.482 0.85c-11.353 0-12.922-7.606-8.949-15.028 0.832-1.555 2.004-2.703 3.342-3.501-0.845 0.708-1.588 1.587-2.165 2.665" style="fill:#ffffff"/>
    </g>
   </g>
   <g clip-path="url(#clipPath1030)">
    <path d="m744.35 278.97c0-6.877 12.551-9.083 16.706-1.321 3.975 7.422 0.042 15.851-11.312 15.851z" style="fill:url(#linearGradient1040)"/>
   </g>
   <g clip-path="url(#clipPath1050)">
    <g transform="translate(697.59 271.47)">
     <path d="m0 0c-3.638 0-7.623 1.593-9.755 5.576-2.462 4.599-2.795 9.039-0.912 12.183 1.292 2.157 4.247 4.727 10.988 4.727 0.706 0 1.279-0.572 1.279-1.278s-0.573-1.278-1.279-1.278c-4.388 0-7.429-1.205-8.795-3.485-1.41-2.353-1.055-5.875 0.972-9.662 2.077-3.881 6.526-4.769 9.781-3.953 2.187 0.549 4.523 2.064 4.523 4.67 0 0.705 0.571 1.277 1.277 1.277s1.278-0.572 1.278-1.277c0-3.359-2.534-6.165-6.456-7.149-0.909-0.228-1.891-0.351-2.901-0.351" style="fill:#2e2e2e"/>
    </g>
    <g transform="translate(752.43 271.47)">
     <path d="m0 0c-1.009 0-1.991 0.123-2.9 0.351-3.922 0.984-6.456 3.79-6.456 7.149 0 0.705 0.572 1.277 1.278 1.277 0.705 0 1.277-0.572 1.277-1.277 0-2.606 2.336-4.121 4.523-4.67 3.255-0.815 7.704 0.072 9.78 3.953 2.028 3.787 2.382 7.309 0.973 9.662-1.366 2.28-4.407 3.485-8.795 3.485-0.706 0-1.279 0.572-1.279 1.278s0.573 1.278 1.279 1.278c6.741 0 9.696-2.57 10.988-4.727 1.882-3.144 1.55-7.584-0.912-12.183-2.132-3.983-6.117-5.575-9.756-5.576" style="fill:#2e2e2e"/>
    </g>
   </g>
   <g clip-path="url(#clipPath1066)">
    <path d="m689.9 327.77c-1.802-8.048-0.242-18.935 0.833-28.518l67.18-0.927c1.072 9.803 2.795 21.136 0.934 29.445-2.669 11.932-14.883 22.699-35.271 22.699-20.387 0-31.006-10.767-33.676-22.699" style="fill:url(#linearGradient1076)"/>
   </g>
   <g clip-path="url(#clipPath1086)">
    <g transform="translate(692.32 326.43)">
     <path d="m0 0c2.67 11.933 13.288 22.699 33.676 22.699 7.239 0 13.441-1.362 18.557-3.647-5.588 3.113-12.729 5.035-21.333 5.035-20.387 0-31.005-10.767-33.675-22.699-1.802-8.049-0.243-18.934 0.832-28.519l2.622-0.036c-1.06 9.245-2.397 19.494-0.679 27.167" style="fill:#ffffff"/>
    </g>
    <g transform="translate(787.97 227.34)">
     <path d="m0 0c-5.319 7.688-15.216 16.001-17.785 17.437-2.57 1.437-16.356 6.448-16.356 6.448s-8.618-5.519-18.975-6.437c-10.357-0.919-14.899-0.229-18.353-0.154s-15.954 5.852-15.954 5.852-16.862-6.902-21.487-13.118c-2.908-3.908-5.919-7.996-7.558-11.382 1.81-1.433 18.917-21.556 52.702-23.819 10.917-0.731 44.318 1.58 63.766 25.173" style="fill:#1a3c26"/>
    </g>
    <g transform="translate(699.58 250.07)">
     <path d="m0 0s-17.548-8.952-20.651-12.707c-2.328-2.815-5.443-6.519-7.547-9.623-0.701-1.035 1.059-3.349 1.363-2.858 8.921 14.393 20.496 20.319 30.298 24.09z" style="fill:#ffffff"/>
    </g>
    <g transform="translate(757.92 297.05)">
     <path d="m0 0c-0.046 0-0.093 3e-3 -0.141 8e-3 -0.701 0.077-1.208 0.708-1.13 1.409 0.136 1.254 0.284 2.532 0.434 3.826 0.983 8.514 2.099 18.163 0.524 25.2-2.241 10.011-12.496 21.702-34.025 21.702-17.265 0-29.388-8.113-32.429-21.702-1.575-7.037-0.46-16.685 0.524-25.199 0.113-0.975 0.224-1.942 0.332-2.896 0.078-0.702-0.427-1.334-1.128-1.413s-1.334 0.426-1.413 1.128c-0.107 0.951-0.218 1.916-0.33 2.888-1.057 9.141-2.149 18.592-0.48 26.051 1.499 6.694 5.189 12.423 10.672 16.565 6.265 4.734 14.424 7.133 24.252 7.133 9.768 0 18.418-2.458 25.017-7.108 5.964-4.203 10.049-10.095 11.503-16.59 1.669-7.46 0.577-16.911-0.48-26.053-0.149-1.288-0.296-2.561-0.432-3.809-0.072-0.656-0.626-1.14-1.27-1.14" style="fill:#2e2e2e"/>
    </g>
    <g transform="translate(709.88 262.82)">
     <path d="m0 0c-0.227-2.085 0.228-4.837-2.632-8.478 0.28-0.632-8.165-3.35-6.006-4.207 3.074-1.217 6.136-5.977 23.245-5.977 4.746 0 24.826 2.564 29.147 6.584 1.917 1.418-8.897 2.901-8.4 3.512-4.974 3.343-4.615 8.601-4.964 10.392-0.391 2-0.62 7.849-0.62 7.849s6.233 5.817 8.69 14.762c0.928 3.378 1.402 6.241 1.402 6.241s7.681-1.259 9.487 1.223c1.804 2.484 2.726 5.487 1.329 8.212-1.399 2.726-3.234 4.851-4.124 5.056-0.891 0.206-5.459 0.822-5.459 0.822s-17.778 2.255-29.964 19.126c-13.61-11.921-23.163-19.582-23.163-19.582s-7.465 1.944-10.371-6.043c-1.11-3.046 1.002-7.396 3.862-8.814 2.859-1.417 7.126 0 7.126 0s2.234-8.663 4.061-11.364c1.828-2.701 7.29-8.763 7.782-9.246 0.491-0.482-0.156-7.564-0.428-10.068" style="fill:#ffffff"/>
    </g>
    <g transform="translate(724.8 266.59)">
     <path d="m0 0h-0.074c-6.979 0.015-13.239 2.699-18.101 7.762-4.381 4.561-7.496 11.012-8.773 18.166-0.124 0.694 0.339 1.358 1.033 1.482 0.696 0.124 1.359-0.339 1.483-1.033 1.958-10.969 9.514-23.789 24.363-23.821h0.066c13.374 0 22.128 8.854 24.025 24.305 0.086 0.701 0.724 1.201 1.425 1.113 0.7-0.086 1.199-0.724 1.113-1.424-0.974-7.934-3.775-14.541-8.098-19.108-4.675-4.938-10.887-7.442-18.462-7.442" style="fill:#2e2e2e"/>
    </g>
    <g transform="translate(695.66 290.9)">
     <path d="m0 0c-5.02 0-9.104 4.083-9.104 9.103 0 5.019 4.084 9.102 9.104 9.102 0.292 0 0.589-0.014 0.88-0.042 0.703-0.067 1.218-0.691 1.15-1.394-0.067-0.703-0.691-1.22-1.394-1.15-0.211 0.02-0.425 0.03-0.636 0.03-3.61 0-6.547-2.937-6.547-6.546 0-3.611 2.937-6.547 6.547-6.547 0.983 0 1.929 0.212 2.809 0.631 0.637 0.303 1.4 0.033 1.703-0.605s0.032-1.4-0.605-1.703c-1.226-0.584-2.541-0.879-3.907-0.879" style="fill:#2e2e2e"/>
    </g>
    <g transform="translate(691.48 299.11)">
     <path d="m0 0c-0.699 0-1.27 0.562-1.278 1.263-0.019 1.65 0.515 3.022 1.546 3.969 0.762 0.701 2.169 1.489 4.544 1.26 0.702-0.067 1.217-0.692 1.149-1.394-0.067-0.702-0.69-1.218-1.395-1.151-0.793 0.077-1.881 0.035-2.569-0.596-0.607-0.559-0.726-1.428-0.719-2.058 8e-3 -0.706-0.557-1.285-1.263-1.293z" style="fill:#2e2e2e"/>
    </g>
    <g transform="translate(753.45 291.25)">
     <path d="m0 0c-1.367 0-2.682 0.296-3.907 0.88-0.638 0.303-0.908 1.065-0.606 1.703 0.304 0.638 1.067 0.908 1.704 0.605 0.88-0.419 1.825-0.631 2.809-0.631 3.609 0 6.546 2.936 6.546 6.547 0 3.609-2.937 6.546-6.546 6.546-0.234 0-0.469-0.012-0.697-0.037-0.702-0.071-1.332 0.434-1.407 1.136s0.434 1.332 1.136 1.406c0.319 0.034 0.644 0.051 0.968 0.051 5.019 0 9.103-4.083 9.103-9.102 0-5.02-4.084-9.104-9.103-9.104" style="fill:#2e2e2e"/>
    </g>
    <g transform="translate(757.63 299.46)">
     <path d="m0 0h-0.016c-0.706 8e-3 -1.271 0.587-1.263 1.293 8e-3 0.63-0.112 1.499-0.719 2.058-0.688 0.631-1.776 0.673-2.569 0.596-0.703-0.066-1.328 0.448-1.395 1.151-0.067 0.702 0.447 1.327 1.15 1.394 2.374 0.229 3.782-0.559 4.543-1.26 1.031-0.947 1.566-2.319 1.546-3.969-7e-3 -0.701-0.579-1.263-1.277-1.263" style="fill:#2e2e2e"/>
    </g>
    <g transform="translate(713.5 305.27)">
     <path d="m0 0c0-1.646-0.783-2.979-1.748-2.979s-1.747 1.333-1.747 2.979c0 1.645 0.782 2.979 1.747 2.979s1.748-1.334 1.748-2.979" style="fill:#2e2e2e"/>
    </g>
    <g transform="translate(736.22 305.27)">
     <path d="m0 0c0-1.646 0.782-2.979 1.747-2.979 0.966 0 1.748 1.333 1.748 2.979 0 1.645-0.782 2.979-1.748 2.979-0.965 0-1.747-1.334-1.747-2.979" style="fill:#2e2e2e"/>
    </g>
    <g transform="translate(723.37 289.52)">
     <path d="m0 0c-0.062 0-0.124 5e-3 -0.187 0.014-1.246 0.182-4.557 0.667-4.695 3.933-0.099 2.368 1.742 3.819 3.367 5.099l0.087 0.067c1.261 0.993 1.85 3.461 1.659 6.949-0.038 0.706 0.502 1.308 1.207 1.346 0.708 0.039 1.307-0.502 1.346-1.206 0.243-4.47-0.641-7.53-2.63-9.097l-0.087-0.068c-1.518-1.195-2.437-1.992-2.395-2.982 0.032-0.764 0.43-1.207 2.512-1.512 0.698-0.103 1.181-0.751 1.08-1.45-0.094-0.636-0.64-1.093-1.264-1.093" style="fill:#2e2e2e"/>
    </g>
    <g transform="translate(703.99 310.17)">
     <path d="m0 0c-0.363 0-0.724 0.153-0.977 0.452-0.456 0.539-0.388 1.345 0.15 1.802 3.484 2.951 7.935 4.3 12.873 3.894 0.703-0.057 1.227-0.674 1.17-1.377-0.058-0.705-0.675-1.227-1.378-1.17-4.309 0.351-8.014-0.757-11.013-3.298-0.24-0.203-0.533-0.303-0.825-0.303" style="fill:#2e2e2e"/>
    </g>
    <g transform="translate(736.04 313.61)">
     <path d="m0 0c-0.069 0-0.14 6e-3 -0.209 0.018-1.321 0.216-2.725 0.266-4.172 0.148-0.706-0.059-1.321 0.466-1.379 1.17-0.057 0.703 0.467 1.32 1.17 1.378 1.656 0.135 3.27 0.076 4.795-0.174 0.697-0.115 1.169-0.772 1.054-1.47-0.103-0.626-0.645-1.07-1.259-1.07" style="fill:#2e2e2e"/>
    </g>
    <g transform="translate(752.62 306.85)">
     <path d="m0 0c-0.104 0-0.209 0.013-0.314 0.04-12.821 3.243-22.088 8.893-30.748 18.789-10.287-9.167-17.024-14.634-24.536-18.669-0.621-0.334-1.396-0.1-1.73 0.522s-0.101 1.396 0.521 1.73c7.52 4.039 14.324 9.631 25.013 19.19l0.98 0.876 0.847-1.002c8.537-10.079 17.592-15.748 30.279-18.958 0.685-0.173 1.099-0.869 0.926-1.553-0.146-0.579-0.667-0.965-1.238-0.965" style="fill:#2e2e2e"/>
    </g>
    <g transform="translate(787.97 226.06)">
     <path d="m0 0c-0.428 0-0.846 0.215-1.088 0.605-2.359 3.805-5.08 7.186-8.087 10.046-10.369 9.865-22.91 13.203-31.208 15.412-0.406 0.109-0.799 0.213-1.18 0.316-3.043 0.817-5.454 3.197-6.29 6.212-1.464 5.283-1.457 10.143-1.453 13.36l1e-3 0.486c0 0.706 0.573 1.278 1.279 1.278 0.705 0 1.277-0.572 1.277-1.278v-0.49c-4e-3 -3.077-0.011-7.726 1.36-12.674 0.595-2.146 2.316-3.841 4.49-4.425 0.378-0.102 0.77-0.206 1.173-0.314 8.031-2.138 21.471-5.716 32.313-16.031 3.165-3.01 6.023-6.561 8.498-10.551 0.372-0.599 0.187-1.388-0.413-1.76-0.21-0.13-0.443-0.192-0.672-0.192" style="fill:#2e2e2e"/>
    </g>
    <g transform="translate(670.53 225.46)">
     <path d="m0 0c-0.216 0-0.436 0.055-0.637 0.171-0.612 0.352-0.821 1.134-0.469 1.746 2.512 4.357 6.254 9.024 10.268 12.803 4.896 4.611 13.269 9.25 24.213 13.412 1.948 0.741 3.409 2.375 3.908 4.369 1.05 4.194 1.148 10.37 1.202 13.688 5e-3 0.304 9e-3 0.582 0.014 0.829 0.013 0.705 0.599 1.262 1.302 1.253 0.706-0.014 1.267-0.597 1.253-1.303-4e-3 -0.244-9e-3 -0.519-0.013-0.82-0.055-3.42-0.157-9.788-1.279-14.268-0.702-2.805-2.75-5.1-5.478-6.137-10.482-3.987-18.782-8.563-23.369-12.885-3.839-3.614-7.414-8.068-9.806-12.218-0.237-0.411-0.667-0.64-1.109-0.64" style="fill:#2e2e2e"/>
    </g>
    <g transform="translate(728.07 280.08)">
     <path d="m0 0c-0.671 0-1.233 0.522-1.275 1.2-0.043 0.705 0.493 1.312 1.198 1.355 2.827 0.174 5.689 1.923 5.689 4.931 0 0.706 0.573 1.279 1.279 1.279s1.278-0.573 1.278-1.279c0-4.048-3.402-7.196-8.09-7.483-0.026-2e-3 -0.053-3e-3 -0.079-3e-3" style="fill:#2e2e2e"/>
    </g>
    <g transform="translate(724.73 242.71)">
     <path d="m0 0c-9.201 0-17.787 2.312-24.851 6.691-0.599 0.372-0.784 1.161-0.412 1.76 0.372 0.601 1.16 0.785 1.76 0.413 6.657-4.129 14.779-6.307 23.503-6.307 0.093 0 0.185 0 0.277 1e-3 10.11 0.052 20.735 2.636 29.152 7.088 0.624 0.331 1.397 0.092 1.727-0.532s0.092-1.397-0.532-1.727c-8.77-4.639-19.825-7.33-30.333-7.386-0.097-1e-3 -0.194-1e-3 -0.291-1e-3" style="fill:#2e2e2e"/>
    </g>
    <g transform="translate(781.74 219.87)">
     <path d="m0 0c-0.391 2.283 1.969 23.088 1.969 23.088l1.531 13.596s4.003 4.964 5.188 8.746c1.183 3.781 2.475 7.897 3.587 9.465 1.114 1.567 1.861 4.859 0.983 6.926-0.877 2.068-2.824 2.96-2.824 2.96l-1.083 1.476s0.602 3.234-0.816 4.275-3.493 1.139-3.493 1.139 2.405 9.63 2.386 10.944c-0.019 1.315 2.392 7.386 1.287 9.9-1.105 2.513-0.299 3.308-2.31 2.841-2.01-0.466-3.758-2.591-4.133-3.484s-3.075-9.576-3.075-9.576l-1.23-5.079-0.966-1.414-0.599 1.167s0.852 9.585 0.012 12.038c-0.841 2.454-0.991 4.925-2.302 5.217-1.31 0.293-3.643 0.062-4.327-2.048-0.683-2.112-1.276-9.185-1.276-9.185l0.027-12.45s-4.169-4.428-4.703-5.728c-0.534-1.299-1.199-7.242-1.204-7.353-5e-3 -0.112 0.173-11.309 0.184-12.699 9e-3 -1.392-0.047-7.008-0.413-8.383-0.365-1.376-3.818-14.561-3.818-14.561l-6.533-21.58-3.617-15.961s23.089 5.14 31.568 15.723" style="fill:#ffffff"/>
    </g>
    <g transform="translate(769.68 288.81)">
     <path d="m0 0h-0.033c-0.705 0.019-1.263 0.605-1.245 1.311 0.031 1.203 0.057 2.262 0.081 3.21 0.134 5.367 0.178 7.175 0.43 11.42 0.211 3.537 0.617 5.859 1.314 7.531 1.207 2.89 3.241 3.432 4.735 3.379 2.003-0.073 3.281-1.808 3.798-5.158 0.371-2.407 0.35-5.402 0.332-7.808-5e-3 -0.684-0.01-1.329-5e-3 -1.905 0.032-4.135-0.056-6.132-0.06-6.215-0.033-0.705-0.621-1.257-1.335-1.219-0.705 0.031-1.251 0.629-1.219 1.334 1e-3 0.02 0.089 2.025 0.058 6.081-5e-3 0.594 0 1.249 4e-3 1.942 0.017 2.316 0.039 5.197-0.302 7.4-0.286 1.853-0.796 2.972-1.363 2.993-1.507 0.048-2.954-0.94-3.404-8.507-0.251-4.2-0.295-5.998-0.428-11.332-0.023-0.948-0.049-2.008-0.081-3.211-0.017-0.695-0.586-1.246-1.277-1.246" style="fill:#2e2e2e"/>
    </g>
    <g transform="translate(786.17 289.83)">
     <path d="m0 0c-0.133 0-0.268 0.021-0.4 0.065-0.671 0.221-1.036 0.944-0.814 1.615 0.012 0.034 1.149 3.5 2.492 9.247 0.826 3.527 1.524 6.654 1.724 9.207 0.183 2.319-0.106 3.779-0.788 4.006-0.471 0.156-0.85 0.135-1.229-0.067-1.167-0.621-2.288-2.83-3.33-6.564-0.59-2.113-1.147-3.906-1.737-5.807-0.687-2.208-1.396-4.491-2.271-7.625-0.19-0.68-0.895-1.076-1.575-0.888-0.679 0.191-1.077 0.896-0.887 1.576 0.885 3.17 1.6 5.47 2.292 7.696 0.584 1.882 1.136 3.659 1.715 5.735 1.29 4.622 2.706 7.131 4.592 8.134 0.991 0.527 2.111 0.609 3.235 0.236 4.215-1.398 2.374-9.273 0.749-16.221-1.372-5.869-2.506-9.323-2.554-9.467-0.178-0.537-0.678-0.878-1.214-0.878" style="fill:#2e2e2e"/>
    </g>
    <g transform="translate(777.46 261.31)">
     <path d="m0 0c-0.292 0-0.584 0.099-0.824 0.302-0.539 0.455-0.608 1.261-0.153 1.801 3.035 3.594 2.943 10.955-0.228 18.315-0.28 0.647 0.019 1.4 0.668 1.679 0.648 0.279 1.4-0.02 1.68-0.668 1.691-3.926 2.602-7.948 2.633-11.629 0.035-3.904-0.933-7.136-2.799-9.346-0.252-0.3-0.614-0.454-0.977-0.454" style="fill:#2e2e2e"/>
    </g>
    <g transform="translate(779.77 273.8)">
     <path d="m0 0c-0.602 0-1.138 0.428-1.255 1.041-0.131 0.693 0.324 1.362 1.019 1.494 1.082 0.205 3.956 2.801 8.542 7.714 2.275 2.439 1.764 3.907 1.066 4.914-0.602 0.868-1.682 1.093-2.749 0.572-0.635-0.308-1.4-0.045-1.709 0.59-0.31 0.635-0.045 1.4 0.589 1.709 2.195 1.07 4.65 0.488 5.97-1.414 1.22-1.76 1.986-4.596-1.299-8.115-4.49-4.812-7.899-8.096-9.935-8.482-0.08-0.015-0.16-0.023-0.239-0.023" style="fill:#2e2e2e"/>
    </g>
    <g transform="translate(784.73 271.6)">
     <path d="m0 0c-1.227 0-2.29 0.386-3.052 1.122-0.622 0.601-1.323 1.716-1.129 3.618 0.072 0.702 0.698 1.215 1.402 1.142 0.702-0.071 1.214-0.699 1.141-1.402-0.072-0.707 0.05-1.218 0.363-1.52 0.353-0.341 1.004-0.475 1.787-0.367 1.391 0.191 4.32 2.658 6.009 4.737 0.445 0.548 1.25 0.631 1.798 0.186s0.631-1.25 0.186-1.798c-1.094-1.346-4.845-5.274-7.646-5.658-0.294-0.04-0.581-0.06-0.859-0.06" style="fill:#2e2e2e"/>
    </g>
    <g transform="translate(781.74 219.03)">
     <path d="m0 0c-0.053 0-0.106 4e-3 -0.16 0.011-0.7 0.087-1.197 0.725-1.111 1.426 2.014 16.147 3.48 35.977 3.495 36.175l0.036 0.497 0.363 0.342c3.331 3.126 4.576 7.22 5.675 10.831 0.631 2.074 1.226 4.033 2.153 5.665 2.176 3.836 1.823 7.106 1.272 8.433-0.436 1.05-1.541 1.4-2.956 0.938-0.671-0.22-1.393 0.147-1.613 0.818-0.219 0.671 0.147 1.392 0.818 1.612 2.695 0.882 5.152-0.077 6.112-2.388 0.906-2.18 1.08-6.285-1.409-10.674-0.786-1.386-1.343-3.213-1.931-5.148-1.153-3.791-2.456-8.071-6.008-11.6-0.239-3.159-1.625-21.023-3.469-35.818-0.08-0.646-0.631-1.12-1.267-1.12" style="fill:#2e2e2e"/>
    </g>
    <g transform="translate(749.21 203.06)">
     <path d="m0 0c-0.116 0-0.234 0.016-0.352 0.049-0.678 0.194-1.072 0.901-0.878 1.58 1.646 5.767 3.829 13.228 5.939 20.444 3.671 12.551 7.468 25.53 8.825 30.884 0.037 0.145 0.076 0.282 0.117 0.424 0.224 0.781 0.478 1.666 0.311 5.33-0.209 4.557-0.512 17.346 0.572 21.739 0.692 2.803 3.707 5.985 5.444 7.631 2.118 2.01 4.91 4.181 6.373 4.501 1.74 0.381 3.206-0.355 4.903-1.208 0.788-0.395 1.681-0.844 2.741-1.263 1.965-0.775 7.186-2.835 5.865-6.668-1.284-3.73-7.135-3.39-9.387-3.111-1.424-2.051-2.359-4.074-2.369-4.097-0.294-0.64-1.053-0.922-1.695-0.629-0.641 0.295-0.923 1.053-0.629 1.695 0.05 0.109 1.247 2.707 3.084 5.172l0.47 0.63 0.775-0.135c2.619-0.458 6.761-0.36 7.334 1.307 0.078 0.224 0.238 0.689-0.666 1.471-0.741 0.642-1.958 1.292-3.72 1.987-1.167 0.461-2.115 0.937-2.951 1.357-1.546 0.776-2.39 1.174-3.209 0.995-0.511-0.113-2.675-1.501-5.164-3.861-2.568-2.438-4.332-4.826-4.717-6.386-1.006-4.078-0.69-16.856-0.5-21.01 0.186-4.084-0.129-5.182-0.408-6.152-0.033-0.116-0.065-0.23-0.095-0.348-1.369-5.398-5.172-18.399-8.85-30.973-2.109-7.211-4.291-14.668-5.934-20.427-0.161-0.562-0.673-0.928-1.229-0.928" style="fill:#2e2e2e"/>
    </g>
    <g transform="translate(723.5 360.88)">
     <path d="m0 0c-21.849 0-46.393-8.634-61.498-33.723-19.035-31.619-13.226-64.768-1.441-85.248 14.032-24.386 37.476-37.676 67.797-38.433 1.061-0.027 2.114-0.04 3.144-0.04 52.355 0 65.405 33.792 71.631 70.452l0.069 0.41 0.299 0.291c5.716 5.569 26.002 25.082 32.028 30.877l-41.471 9.646-0.236 0.657c-7.574 21.128-26.14 36.729-50.937 42.805-5.947 1.457-12.533 2.306-19.385 2.306m7.92-160c-1.031 0-2.072 0.013-3.125 0.039-15.761 0.394-29.808 4.096-41.753 11.006-11.615 6.719-21.102 16.377-28.197 28.708-7.188 12.492-11.081 26.87-11.258 41.578-0.193 16.117 4.207 32.115 12.725 46.265 8.853 14.704 22.061 25.369 38.197 30.841 14.22 4.824 30.373 5.442 45.483 1.74 11.992-2.939 23.04-8.297 31.95-15.497 9.541-7.709 16.452-17.219 20.547-28.273l44.708-10.4-1.698-1.633c-0.266-0.255-26.26-25.244-33.416-32.207-2.714-15.856-7.403-35.785-19.479-50.275-6.041-7.25-13.626-12.757-22.544-16.367-9.07-3.67-19.87-5.525-32.14-5.525" style="fill:#2e2e2e"/>
    </g>
    <g transform="translate(827.06 494.83)">
     <path d="m0 0-16.72 26.436c11.002 56.251-19.358 72.847-43.577 75.743-25.23 3.017-72.307 0.533-68.639-65.529 2.164-38.963 49.868-63.616 95.52-37.9 13.766 0.591 33.416 1.25 33.416 1.25" style="fill:#fefefe"/>
    </g>
    <g transform="translate(702.5 528.47)">
     <path d="m0 0c-3.669 66.062 43.337 69.336 68.566 66.319 7.114-0.85 14.828-3.676 21.796-7.548-8 5.599-17.402 9.131-25.966 10.155-25.231 3.017-72.236-0.257-68.568-66.319 0.968-17.431 11.055-31.994 25.991-40.468-12.621 8.692-20.944 22.105-21.819 37.861" style="fill:#ffffff"/>
    </g>
    <g transform="translate(792.55 492.97)">
     <path d="m0 0c1.377-0.614 1.592 1.141 4.776 1.025-6.981 3.108-15.382 3.285-15.382 3.285l-5.487-2.603s-10.377-1.345-14.541-1.006c-4.163 0.339-11.657 1.152-16.199 4.837-2.846 0.177-12.949-3.672-12.949-3.672s-7.263-3.553-8.708-4.878c26.661-15.015 60.884-1.772 68.49 3.012" style="fill:#4d6756"/>
    </g>
    <g transform="translate(727.91 488.67)">
     <path d="m0 0c1.445 1.325 8.708 4.878 8.708 4.878s8.256 3.144 11.943 3.618c-0.705 0.398-1.375 0.839-1.988 1.337-2.846 0.177-12.949-3.672-12.949-3.672s-7.263-3.553-8.708-4.878c2.061-1.161 4.166-2.146 6.296-2.975-1.111 0.519-2.213 1.078-3.302 1.692" style="fill:#ffffff"/>
    </g>
    <g transform="translate(794.1 557.89)">
     <path d="m0 0c-0.279 3.266-1.298 10.103-4.252 13.208-2.953 3.106-7.754 7.138-14.96 7.385-8.759 1.847-18.826 4.131-24.173 3.271-4.904-0.788-12.772-3.778-16.281-8.015-6.163 8.397-17.079 6.9-20.637-5.591-3.703-13.007 5.157-16.662 12.384-16.004l0.428 1.011c-0.143-4.057-0.039-8.721 0.472-10.947 0.788-3.427 3.213-10.494 5.548-13.465s16.844-11.989 16.844-11.989 2.384 5.327 8.48 11.846 34.324 18.604 34.324 18.604 2.102 7.42 1.823 10.686" style="fill:#2e2e2e"/>
    </g>
    <g transform="translate(780.73 538.69)">
     <path d="m0 0c-0.477 6.066 2.798 11.271 7.314 11.627 4.517 0.355 8.565-4.275 9.041-10.341 0.477-6.066-2.797-11.272-7.314-11.627s-8.564 4.275-9.041 10.341" style="fill:#ffffff"/>
    </g>
    <g transform="translate(788.43 549.05)">
     <path d="m0 0c-0.13 0-0.261-5e-3 -0.392-0.015-1.771-0.14-3.386-1.233-4.547-3.078-1.236-1.965-1.801-4.513-1.592-7.175 0.209-2.661 1.166-5.089 2.693-6.836 1.436-1.642 3.201-2.471 4.974-2.33 3.805 0.299 6.56 4.898 6.139 10.252-0.406 5.17-3.628 9.182-7.275 9.182m0.739-22.006c-2.384 0-4.673 1.128-6.502 3.218-1.886 2.16-3.065 5.114-3.317 8.32s0.45 6.309 1.977 8.736c1.602 2.546 3.915 4.061 6.511 4.265 5.216 0.412 9.885-4.756 10.416-11.515s-3.276-12.591-8.488-13.001c-0.199-0.016-0.399-0.023-0.597-0.023" style="fill:#2e2e2e"/>
    </g>
    <g transform="translate(788.56 559.04)">
     <path d="m0 0c1.455-5.138 1.99-7.697 2.469-10.266 0.032-0.175 1.525-12.419 1.52-17.394-4e-3 -4.975-1.843-10.238-4.429-12.183-2.587-1.945-3.776-2.619-5.169-3.24-1.216-0.542-6.768-1.513-6.768-1.513s-0.213-8.519 0.397-11.8c0.382-1.321 1.625-3.879 4.241-6.238-7.804-3.886-28.547-4.601-35.594 3.085 7.399 12.081 3.752 26.92 3.604 27.806-0.34 2.03-2.766 20.442-2.766 20.442s16.61-2.106 26.68 19.643c5.638-1.558 13.671-3.844 15.815-8.342" style="fill:#ffffff"/>
    </g>
    <g transform="translate(772.12 513.02)">
     <path d="m0 0c-1.686 0-4.277 0.113-7.026 0.811-0.685 0.173-1.099 0.869-0.925 1.553s0.868 1.098 1.554 0.925c3.215-0.817 6.264-0.746 7.566-0.716l0.264 6e-3c6.084 0.112 10.381 1.388 13.139 3.901 2.803 2.555 4.186 6.56 4.229 12.244 0.099 13.342-3.545 26.079-3.582 26.206-0.197 0.678 0.194 1.387 0.872 1.584 0.679 0.196 1.387-0.194 1.583-0.872 0.155-0.533 3.786-13.209 3.683-26.937-0.048-6.436-1.705-11.053-5.063-14.114-3.236-2.95-8.083-4.445-14.815-4.568l-0.25-6e-3c-0.319-7e-3 -0.736-0.017-1.229-0.017" style="fill:#2e2e2e"/>
    </g>
    <g transform="translate(746.41 529.84)">
     <path d="m0 0c-1.896 0-3.709 0.67-5.161 1.919-1.608 1.382-2.58 3.307-2.739 5.421-0.329 4.364 2.953 8.181 7.316 8.511 1.092 0.082 2.169-0.057 3.197-0.414 0.667-0.231 1.02-0.96 0.788-1.627-0.231-0.667-0.959-1.02-1.627-0.788-0.695 0.241-1.424 0.335-2.166 0.279-2.958-0.223-5.182-2.811-4.96-5.769 0.109-1.432 0.768-2.738 1.858-3.675 1.09-0.936 2.477-1.392 3.911-1.285 0.807 0.061 1.567 0.294 2.263 0.691 0.613 0.351 1.393 0.137 1.744-0.475 0.35-0.613 0.138-1.394-0.475-1.745-1.028-0.587-2.151-0.93-3.34-1.02-0.203-0.015-0.407-0.023-0.609-0.023" style="fill:#2e2e2e"/>
    </g>
    <g transform="translate(743.06 536.39)">
     <path d="M 0,0 C -0.655,0 -1.214,0.502 -1.271,1.167 -1.399,2.634 -0.913,4.021 0.062,4.974 1.037,5.925 2.389,6.359 3.869,6.194 4.571,6.115 5.076,5.483 4.998,4.781 4.92,4.08 4.288,3.575 3.586,3.653 2.871,3.733 2.271,3.557 1.848,3.144 1.416,2.723 1.213,2.1 1.275,1.39 1.336,0.686 0.816,0.066 0.112,0.005 0.075,0.002 0.037,0 0,0" style="fill:#2e2e2e"/>
    </g>
    <g transform="translate(777.82 533.06)">
     <path d="m0 0c-0.7 0-1.271 0.565-1.277 1.267-7e-3 0.706 0.56 1.283 1.266 1.289 0.296 3e-3 1.141 0.322 1.632 0.837 0.165 0.172 0.261 0.341 0.257 0.451-0.019 0.51-0.265 0.773-1.223 1.591-0.312 0.266-0.666 0.567-1.041 0.926-1.669 1.597-3.613 4.528-3.399 9.425 0.122 2.818 1.593 5.481 3.932 7.124 2.071 1.454 5.798 2.793 11.806 0.916 0.674-0.211 1.049-0.928 0.839-1.601-0.211-0.674-0.928-1.05-1.602-0.839-3.968 1.24-7.278 1.043-9.574-0.568-1.995-1.401-2.779-3.576-2.847-5.143-0.136-3.119 0.767-5.701 2.613-7.467 0.322-0.308 0.633-0.572 0.932-0.829 1.011-0.862 2.056-1.754 2.119-3.441 0.03-0.82-0.303-1.62-0.963-2.311-0.877-0.918-2.364-1.618-3.458-1.627z" style="fill:#2e2e2e"/>
    </g>
    <g transform="translate(781.21 495.93)">
     <path d="m0 0c-0.171 0-0.345 0.035-0.512 0.107-4.842 2.118-5.639 5.793-5.782 9.108-0.152 3.572 0.06 7.585 0.174 8.657 0.074 0.702 0.704 1.211 1.405 1.136 0.702-0.075 1.211-0.704 1.137-1.406-0.081-0.762-0.318-4.609-0.161-8.277 0.135-3.156 0.893-5.407 4.252-6.875 0.646-0.283 0.941-1.036 0.659-1.683-0.21-0.48-0.68-0.767-1.172-0.767" style="fill:#2e2e2e"/>
    </g>
    <g transform="translate(741.77 548.23)">
     <path d="m0 0c-0.271 13.996 4.52 24.296 15.159 30.388 3.998 2.29 8.68 2.842 14.611 1.758 0 0 2.557-1 4.954-1.921-6.239 0.19-10.224-0.213-14.032-2.473-12.705-7.539-16.242-18.523-16.855-28.085 3.035-1.194 5.644-4.491 6.535-8.75 1.246-5.956-1.338-11.536-5.772-12.464-4.435-0.928-9.039 3.148-10.286 9.104-1.238 5.917 1.305 11.461 5.686 12.443" style="fill:#ffffff"/>
    </g>
    <g transform="translate(750.72 538.39)">
     <path d="m0 0c-0.892 4.259-3.318 7.674-6.52 8.299-3.817 0.745-5.191-1.693-5.186-1.597 0.025 0.409 1.392 2.703 5.271 3.098 0.232 4.57 1.326 11.002 4.174 16.374 0.776 1.463 6.449 10.922 17.506 13.38-7.55-3.689-13.56-9.45-12.8-8.7-5.973-6.979-7.686-14.192-8.132-21.153 3.035-1.195 5.644-4.491 6.535-8.75 0.91-4.349-0.224-8.495-2.628-10.779 1.809 2.384 2.575 6.029 1.78 9.828" style="fill:#ffffff"/>
    </g>
    <g transform="translate(745.52 546.91)">
     <path d="m0 0c-0.027 0-0.055 1e-3 -0.083 2e-3 -0.704 0.046-1.239 0.654-1.193 1.358 0.827 12.901 6.538 22.322 17.459 28.802 2.217 1.316 4.502 2.036 7.088 2.393-4.512 0.494-8.158-0.146-11.334-1.966-10.012-5.733-14.761-15.247-14.521-29.088 0.013-0.706-0.55-1.288-1.256-1.3-0.703-0.011-1.288 0.55-1.3 1.256-0.126 7.217 1.102 13.491 3.649 18.647 2.624 5.313 6.714 9.587 12.157 12.704 4.277 2.449 9.194 3.055 15.476 1.906l0.121-0.022 0.114-0.045c0.025-9e-3 2.582-1.008 4.947-1.918l7.022-2.7-7.519 0.229c-5.844 0.178-9.7-0.135-13.34-2.295-10.139-6.017-15.443-14.772-16.213-26.767-0.043-0.676-0.605-1.196-1.274-1.196" style="fill:#2e2e2e"/>
    </g>
    <g transform="translate(743.66 546.94)">
     <path d="m0 0c-0.124 0-0.249-5e-3 -0.375-0.014-1.771-0.134-3.39-1.222-4.557-3.064-1.243-1.961-1.816-4.506-1.615-7.169 0.2-2.662 1.15-5.093 2.672-6.846 1.43-1.646 3.193-2.479 4.965-2.345 1.772 0.133 3.39 1.222 4.557 3.063 1.243 1.961 1.817 4.507 1.616 7.169-0.391 5.179-3.608 9.206-7.263 9.206m0.71-22.009c-2.393 0-4.688 1.135-6.516 3.24-1.88 2.165-3.048 5.123-3.291 8.33-0.241 3.207 0.471 6.307 2.005 8.73 1.611 2.541 3.928 4.048 6.526 4.244 5.212 0.391 9.869-4.787 10.379-11.548 0.241-3.207-0.471-6.307-2.005-8.73-1.611-2.541-3.928-4.049-6.526-4.244-0.191-0.014-0.382-0.022-0.572-0.022" style="fill:#2e2e2e"/>
    </g>
    <g transform="translate(773.74 522.94)">
     <path d="m0 0c-2.554 0.543-3.953 1.872-4.589 3.789-0.486 1.466-0.464 2.244 0.182 2.596 0.817 0.445 2.762-0.294 5.747-1.046 2.179-0.549 5.41-0.542 5.555-2.182 0.126-1.412-2.84-4.019-6.895-3.157" style="fill:#2e2e2e"/>
    </g>
    <g transform="translate(769.6 525.93)">
     <path d="M 0,0 C 2.424,1.804 6.144,1.114 6.294,-2.441 3.6,-2.702 0.534,-1.101 0,0" style="fill:#ffffff"/>
    </g>
    <g transform="translate(769.88 528.43)">
     <path d="m0 0m9.486-2.146m-5.356-1.837c2.284-0.486 3.846 0.38 4.411 0.775 0.583 0.406 0.858 0.814 0.928 1-0.362 0.319-1.864 0.57-2.687 0.708-0.633 0.105-1.288 0.214-1.889 0.366-0.717 0.181-1.38 0.362-1.965 0.522-0.972 0.266-2.148 0.588-2.703 0.621 0.021-0.186 0.085-0.511 0.264-1.051 0.534-1.612 1.657-2.519 3.641-2.941m1.343-2.699c-0.619 0-1.247 0.065-1.874 0.199-2.855 0.607-4.718 2.167-5.536 4.637-0.285 0.855-1.038 3.128 0.784 4.12 1.075 0.586 2.461 0.207 4.756-0.42 0.573-0.157 1.222-0.334 1.915-0.509 0.5-0.126 1.076-0.222 1.686-0.324 2.064-0.345 4.633-0.774 4.829-2.984 0.083-0.945-0.441-1.994-1.439-2.878-1.354-1.199-3.184-1.841-5.121-1.841" style="fill:#2e2e2e"/>
    </g>
    <g transform="translate(776.11 522.15)">
     <path d="m0 0c-0.027 0-0.055 1e-3 -0.082 3e-3 -0.604 0.045-1.056 0.57-1.012 1.174 0.1 1.343-0.417 2.3-1.455 2.694-1.094 0.416-2.451 0.083-3.093-0.757-0.368-0.482-1.055-0.573-1.536-0.206-0.481 0.368-0.573 1.055-0.205 1.536 1.238 1.62 3.599 2.241 5.612 1.475 1.964-0.746 3.035-2.58 2.863-4.904-0.042-0.576-0.524-1.015-1.092-1.015" style="fill:#2e2e2e"/>
    </g>
    <g transform="translate(748.05 545.92)">
     <path d="m0 0c-0.585 0-1.113 0.405-1.246 1.001-0.153 0.689 0.28 1.372 0.97 1.525 8.669 1.931 23.302 7.263 23.915 21.29 0.031 0.705 0.629 1.25 1.333 1.222 0.705-0.032 1.252-0.628 1.22-1.333-0.286-6.571-3.288-12.076-8.92-16.361-5.418-4.124-12.232-6.253-16.993-7.313-0.093-0.021-0.187-0.031-0.279-0.031" style="fill:#2e2e2e"/>
    </g>
    <g transform="translate(749.18 516.16)">
     <path d="m0 0c-0.119 0-0.24 0.017-0.36 0.052-6.617 1.945-12.299 5.808-16.433 11.175-3.698 4.799-6.088 10.626-6.911 16.85-1.17 8.845-0.107 16.65 3.159 23.196 2.494 4.999 6.322 9.182 10.778 11.776 4.874 2.837 12.852 6.241 25.798 3.052 0.686-0.169 1.105-0.862 0.936-1.547-0.169-0.686-0.862-1.105-1.547-0.936-12.047 2.968-19.409-0.164-23.9-2.779-3.699-2.152-15.542-10.853-12.689-32.427 1.302-9.849 7.642-21.826 21.529-25.907 0.677-0.199 1.065-0.909 0.867-1.587-0.165-0.557-0.674-0.918-1.227-0.918" style="fill:#2e2e2e"/>
    </g>
    <g transform="translate(793.06 547.51)">
     <path d="m0 0c-0.079 0-0.159 7e-3 -0.239 0.022-0.694 0.132-1.15 0.8-1.019 1.494l0.072 0.383c0.485 2.555 0.942 4.968 0.967 6.658 0.175 11.809-5.301 18.869-16.277 20.985-0.693 0.134-1.147 0.804-1.013 1.498 0.133 0.693 0.804 1.146 1.497 1.012 6.36-1.226 11.144-3.992 14.22-8.222 2.833-3.895 4.223-9.046 4.129-15.31-0.028-1.912-0.505-4.43-1.011-7.097l-0.072-0.382c-0.116-0.613-0.652-1.041-1.254-1.041" style="fill:#2e2e2e"/>
    </g>
    <g transform="translate(788.56 557.02)">
     <path d="m0 0c-0.502 0-0.978 0.297-1.182 0.789-1.583 3.818-6.286 8.092-14.329 7.566-0.705-0.046-1.312 0.488-1.358 1.193-0.046 0.704 0.487 1.312 1.192 1.358 9.393 0.612 14.951-4.539 16.858-9.138 0.269-0.652-0.04-1.4-0.692-1.67-0.16-0.066-0.326-0.098-0.489-0.098" style="fill:#2e2e2e"/>
    </g>
    <g transform="translate(724.69 489.1)">
     <path d="m0 0c-0.409 0-0.812 0.196-1.059 0.56-0.396 0.584-0.245 1.379 0.339 1.775 7.882 5.357 14.912 7.211 19.113 8.319 0.637 0.168 1.188 0.314 1.682 0.454l0.651 0.186 0.519-0.434c4.029-3.366 11.073-5.319 19.324-5.358h0.244c7.783 0 13.446 1.747 15.039 3.492 0.475 0.522 1.284 0.558 1.805 0.082 0.522-0.475 0.559-1.284 0.082-1.805-2.405-2.636-9.031-4.325-16.923-4.326-0.086 0-0.171 1e-3 -0.258 1e-3 -8.496 0.04-15.883 2.047-20.42 5.527-0.347-0.094-0.714-0.191-1.094-0.291-4.042-1.066-10.807-2.85-18.327-7.961-0.22-0.149-0.47-0.221-0.717-0.221" style="fill:#2e2e2e"/>
    </g>
    <g transform="translate(745.11 497.7)">
     <path d="m0 0c-0.287 0-0.576 0.096-0.814 0.294-0.544 0.45-0.62 1.256-0.169 1.8 4.294 5.184 4.583 13.172 3.6 28.04-0.046 0.704 0.487 1.313 1.192 1.36 0.706 0.045 1.313-0.487 1.36-1.191 1.048-15.877 0.692-23.954-4.184-29.84-0.253-0.305-0.618-0.463-0.985-0.463" style="fill:#2e2e2e"/>
    </g>
    <g transform="translate(795.14 493.06)">
     <path d="m0 0c-0.12 0-0.242 0.017-0.362 0.053-3.691 1.091-8.076 2.052-13.802 3.026-0.695 0.118-1.164 0.778-1.045 1.475 0.118 0.696 0.778 1.165 1.475 1.045 5.827-0.991 10.306-1.974 14.096-3.095 0.677-0.2 1.064-0.911 0.864-1.588-0.165-0.556-0.674-0.916-1.226-0.916" style="fill:#2e2e2e"/>
    </g>
    <g transform="translate(782.44 546.77)">
     <path d="m0 0c0.104-1.408 0.856-2.5 1.683-2.439 0.826 0.06 1.412 1.251 1.308 2.658-0.102 1.408-0.856 2.5-1.681 2.44-0.827-0.06-1.413-1.251-1.31-2.659" style="fill:#2e2e2e"/>
    </g>
    <g transform="translate(762.69 544.6)">
     <path d="m0 0c0.103-1.408 0.856-2.5 1.682-2.44 0.826 0.061 1.412 1.251 1.309 2.659s-0.856 2.5-1.682 2.44c-0.827-0.061-1.413-1.251-1.309-2.659" style="fill:#2e2e2e"/>
    </g>
    <g transform="translate(756.9 547.51)">
     <path d="m0 0c-0.23 0-0.463 0.062-0.673 0.192-0.599 0.372-0.784 1.161-0.412 1.761 0.413 0.665 0.971 1.337 1.66 1.997 0.51 0.488 1.319 0.471 1.808-0.038 0.488-0.51 0.471-1.319-0.038-1.808-0.528-0.504-0.962-1.023-1.258-1.5-0.241-0.39-0.659-0.604-1.087-0.604" style="fill:#2e2e2e"/>
    </g>
    <g transform="translate(768.82 552.45)">
     <path d="m0 0c-0.14 0-0.281 0.023-0.42 0.072-1.183 0.411-2.518 0.428-3.972 0.05-0.684-0.179-1.381 0.232-1.559 0.915s0.232 1.381 0.915 1.559c1.952 0.508 3.788 0.471 5.457-0.11 0.666-0.232 1.018-0.961 0.786-1.628-0.184-0.527-0.678-0.858-1.207-0.858" style="fill:#2e2e2e"/>
    </g>
    <g transform="translate(724.56 550.79)">
     <path d="m0 0c-4.367 0-8.191 1.537-10.448 4.259-2.651 3.199-3.168 7.723-1.537 13.449 1.945 6.834 6.142 11.372 11.226 12.139 4.402 0.665 8.804-1.667 11.779-6.236 0.384-0.592 0.217-1.383-0.374-1.769-0.592-0.385-1.384-0.217-1.769 0.374-2.448 3.762-5.821 5.622-9.255 5.103-4.064-0.613-7.485-4.468-9.149-10.312-1.386-4.865-1.034-8.606 1.048-11.116 2.014-2.431 5.748-3.652 9.99-3.265 0.703 0.063 1.325-0.454 1.388-1.157 0.065-0.703-0.454-1.325-1.157-1.389-0.589-0.054-1.17-0.08-1.742-0.08" style="fill:#2e2e2e"/>
    </g>
    <g transform="translate(755.22 597.6)">
     <path d="m0 0c-13.854 0-31.443-3.138-43.11-16.611-10.126-11.693-14.762-29.689-12.718-49.374 1.875-18.061 12.597-33.756 28.681-41.982 18.879-9.656 42.546-7.813 64.93 5.057l0.271 0.156 0.311 0.013c10.901 0.469 25.652 0.985 31.198 1.175l-15.799 24.981 0.097 0.499c4.622 23.631 1.989 42.45-7.829 55.935-11.037 15.159-27.722 18.649-34.384 19.445-3.314 0.396-7.298 0.706-11.648 0.706m-0.851-116.68c-9.754 0-19.183 2.201-27.461 6.435-16.857 8.622-28.094 25.068-30.059 43.994-1.138 10.958-0.347 21.217 2.35 30.489 2.335 8.026 6.131 15.226 10.978 20.822 6.934 8.008 16.469 13.343 28.34 15.858 10.819 2.292 21.555 1.762 28.655 0.913 6.994-0.837 24.518-4.507 36.148-20.48 4.771-6.554 7.96-14.425 9.474-23.395 1.686-9.972 1.313-21.42-1.106-34.035l17.641-27.893-2.23-0.075c-0.195-7e-3 -19.506-0.655-33.093-1.237-12.009-6.857-24.166-10.659-36.138-11.301-1.169-0.063-2.336-0.095-3.499-0.095" style="fill:#2e2e2e"/>
    </g>
    <g transform="translate(658.01 507.46)">
     <path d="m0 0c-0.864 1.541-3.512 1.7-2.761 3.949 0.75 2.244 2.798 2.004 4.635 2.018 0.153 1e-3 0.306-1e-3 0.459 1e-3 8.302 0.115 10.303-2.525 8.308-10.837-0.332-1.382-0.971-2.246-2.419-2.237-1.356 7e-3 -1.833 0.829-2.84 4.951-5.094-3.777-9.305-8.074-13.239-12.609-16.384-18.885-24.189-41.208-25.717-65.863-1.076-17.375 0.699-34.516 5.485-51.301 0.497-1.741 1.409-3.794-1.312-4.455-2.191-0.533-2.881 1.156-3.34 2.892-9.149 34.633-9.278 68.658 7.194 101.44 6.247 12.432 14.976 23.015 25.547 32.052" style="fill:#79BA3C"/>
    </g>
    <g transform="translate(648.45 374.08)">
     <path d="m0 0c-15.416 52.034 3.934 93.518 39.51 130.06 1.197 1.23 2.673 3.282 4.557 1.325 2.163-2.245-0.379-3.492-1.676-4.769-18.412-18.132-32.266-39.088-39.385-64.114-6.036-21.221-5.312-42.294 2.168-63.091 0.189-0.524 0.465-1.016 0.667-1.45 1.442 0.031 1.506 1.195 2.029 1.855 0.894 1.128 1.965 1.553 3.183 0.833 1.307-0.774 1.202-2.081 0.581-3.232-1.158-2.15-2.438-4.235-3.679-6.341-0.154-0.26-0.333-0.591-0.582-0.696-4.269-1.819-6.456 2.248-9.624 3.52-2.055 0.825-2.629 2.501-0.762 4.318 0.914 0.747 3.242-0.892 3.013 1.786" style="fill:#2e2e2e"/>
    </g>
    <g transform="translate(1105.5 340.12)">
     <path d="m0 0c-3.376-1.154-6.017-2.052-8.654-2.961-1.066-0.367-2.099-0.502-2.489 0.857-0.337 1.176 0.521 1.661 1.462 1.983 3.611 1.235 7.236 2.43 10.828 3.716 1.33 0.475 2.124 0.081 2.706-1.116 1.626-3.349 3.271-6.69 4.919-10.029 0.506-1.026 0.708-2.031-0.572-2.573-1.143-0.482-1.689 0.377-2.125 1.248-1.08 2.159-2.147 4.325-3.48 7.015-0.533-1.59-0.933-2.734-1.302-3.888-8.23-25.734-18.775-50.415-33.599-73.112-16.471-25.222-37.012-46.188-63.871-60.44-25.738-13.658-53.3-19.066-82.266-17.988-18.36 0.683-36.268 3.918-53.738 9.589-0.706 0.229-1.427 0.448-2.083 0.785-0.672 0.345-0.798 1.013-0.57 1.69 0.232 0.694 0.79 1.104 1.505 0.964 0.908-0.177 1.785-0.511 2.673-0.789 31.923-9.969 64.277-12.688 97.063-5.074 35.622 8.273 64.012 27.954 86.702 56.242 19.057 23.758 32.077 50.745 42.053 79.326 1.613 4.622 3.092 9.291 4.838 14.555" style="fill:#2e2e2e"/>
    </g>
    <g transform="translate(992.58 173.15)">
     <path d="m0 0c39.507 13.655 69.825 39.124 93.712 72.87 10.482 14.811 18.968 30.759 26.883 47.036 1.017 2.094 2.037 4.198 3.506 6.031 0.81 1.008 1.835 1.873 3.045 0.752 1.062-0.984 0.042-1.721-0.585-2.566-2.964-3.995-4.788-8.623-6.971-13.04-11.923-24.113-26.2-46.613-44.876-66.144-14.818-15.498-31.629-28.326-50.758-38.071-0.83-0.423-1.644-0.876-2.466-1.315-0.305-0.843-1.256-0.627-1.791-1.092-8.365-3.313-16.574-7.043-25.261-9.494-5.436-1.534-10.885-3.025-16.329-4.535-4.76-0.177-9.349-1.491-14.045-2.125-20.438-2.761-40.863-2.515-61.295-0.075-5.168 0.618-10.325 1.33-16.343 2.111 2.478-2.796 4.607-5.031 6.526-7.434 0.917-1.148 3.386-2.393 1.553-4.015-1.892-1.674-2.766 1.014-3.758 2.057-3.082 3.238-5.952 6.677-8.966 9.983-1.409 1.545-1.305 2.644 0.506 3.794 4.012 2.545 7.948 5.21 11.917 7.822 0.877 0.577 1.841 1.242 2.688 0.094 0.984-1.333-0.118-2.007-1.068-2.639-3.004-1.995-6.015-3.979-9.697-6.411 5.427-0.827 10.076-1.655 14.756-2.231 22.766-2.806 45.512-2.963 68.209 0.764 9.377 1.54 18.591 3.749 27.589 6.823 0.429 0.147 0.817 0.415 1.224 0.627 0.658 0.339 1.42 0.164 2.095 0.423" style="fill:#79BA3C"/>
    </g>
    <g transform="translate(844.94 588.08)">
     <path d="m0 0c2.49-0.502 4.168-0.766 5.803-1.193 1.26-0.33 2.127-1.191 1.772-2.597-0.288-1.147-1.275-1.749-2.414-1.549-3.607 0.633-7.211 1.312-10.78 2.127-1.578 0.36-1.804 1.686-1.525 3.129 0.522 2.698 1.006 5.404 1.538 8.1 0.296 1.501 0.8 2.946 2.767 2.456 1.674-0.418 1.635-1.786 1.405-3.17-0.128-0.768-0.175-1.549-0.256-2.304 0.951-0.728 1.475 0.169 2.029 0.547 26.216 17.855 55.504 25.217 86.858 24.949 32.787-0.281 63.996-8.001 93.912-21.173 1.758-0.774 5.335-1.085 3.977-4.104-1.421-3.158-3.848-0.421-5.636 0.341-37.47 15.947-76.165 24.44-117.07 19.076-21.202-2.78-40.825-9.991-58.637-21.934-1.056-0.708-2.065-1.489-3.739-2.701" style="fill:#2e2e2e"/>
    </g>
    <g transform="translate(889.03 282.74)">
     <path d="m0 0c6.521-14.174 13.676-19.218 19.115-22.989 6.96-4.826 24.73-12.375 32.004-15.345 0.366-0.796 7.369-15.533 7.369-15.533l86.995 19.427s-6.068 6.001-11.029 23.798l-4.961 17.799s-61.555 9.301-82.724 8.358c-21.169-0.944-45.361-15.104-46.769-15.515" style="fill:#ffffff"/>
    </g>
    <g transform="translate(847.92 425.44)">
     <path d="m0 0c-8.589 4.747-18.994 2.175-22.26-5.019-4.026-8.868 8.572-23.128 30.861-33.127z" style="fill:#ffffff"/>
    </g>
   </g>
   <g clip-path="url(#clipPath1374)">
    <path d="m931.92 474.22-80.612-18.176c-5.211-1.174-8.483-6.351-7.308-11.563l36.023-159.76c1.174-5.212 6.351-8.483 11.563-7.309l80.611 18.175c5.211 1.175 8.483 6.353 7.308 11.564l-36.021 159.77c-1.015 4.495-5.006 7.547-9.428 7.547-0.704 0-1.42-0.077-2.136-0.239" style="fill:url(#linearGradient1384)"/>
   </g>
   <g clip-path="url(#clipPath1394)">
    <g transform="translate(883.34 280.15)">
     <path d="m0 0-37.741 167.39c-0.633 2.806 1.129 5.593 3.934 6.225l88.24 19.895c1.133 0.256 2.263 0.188 3.296-0.14-1.439 1.114-3.346 1.601-5.26 1.169l-87.157-19.65c-3.403-0.768-5.541-4.149-4.773-7.553l37.498-166.31c0.512-2.269 2.187-3.975 4.256-4.632-1.12 0.867-1.957 2.114-2.293 3.604" style="fill:#ffffff"/>
    </g>
    <g transform="translate(973.2 310.52)">
     <path d="m0 0-88.937-20.052-34.556 153.27 88.936 20.053z" style="fill:#79BA3C"/>
    </g>
    <g transform="translate(956.22 385.84)">
     <path d="m0 0-88.937-20.053-8.491 37.663 88.937 20.052z" style="fill:#ffffff"/>
    </g>
    <g transform="translate(855.66 441.4)">
     <path d="m0 0 83.319 19-0.972 3.582-88.302-20.244 34.58-152.7 2.777 0.626-33.171 146.93c-0.284 1.261 0.508 2.514 1.769 2.798" style="fill:#ffffff"/>
    </g>
    <g transform="translate(848.26 454.32)">
     <path d="m0 0c-2.855-0.644-4.654-3.491-4.011-6.347l37.498-166.31c0.644-2.855 3.491-4.655 6.346-4.011l87.156 19.651c2.856 0.643 4.656 3.491 4.012 6.347l-37.498 166.31c-0.644 2.856-3.491 4.655-6.347 4.011zm127.43-158.99-87.157-19.651c-3.941-0.889-7.871 1.596-8.758 5.536l-37.498 166.31c-0.889 3.941 1.594 7.871 5.536 8.759l87.156 19.651c3.941 0.889 7.87-1.595 8.759-5.536l37.498-166.31c0.888-3.941-1.595-7.87-5.536-8.759" style="fill:#2e2e2e"/>
    </g>
    <g transform="translate(885.03 291.67)">
     <path d="m0 0 86.968 19.608-34.114 151.3-86.967-19.608zm89.38 18.083-90.905-20.496-35.001 155.24 90.905 20.496z" style="fill:#2e2e2e"/>
    </g>
    <g transform="translate(894.34 459.63)">
     <path d="m0 0c-0.295 1.311-1.598 2.133-2.908 1.838-1.311-0.296-2.134-1.598-1.838-2.908 0.295-1.311 1.598-2.134 2.908-1.838 1.311 0.295 2.134 1.597 1.838 2.908" style="fill:#ffffff"/>
    </g>
    <g transform="translate(891.66 460.46)">
     <path d="m0 0c-0.755-0.17-1.231-0.923-1.061-1.678 0.17-0.756 0.923-1.232 1.678-1.061 0.755 0.17 1.232 0.923 1.061 1.678-0.17 0.755-0.923 1.231-1.678 1.061m1.07-4.747c-1.862-0.42-3.718 0.754-4.138 2.616s0.754 3.718 2.615 4.138c1.862 0.42 3.719-0.753 4.139-2.615 0.419-1.862-0.754-3.719-2.616-4.139" style="fill:#2e2e2e"/>
    </g>
    <g transform="translate(856.75 386.3)">
     <path d="m0 0c-0.206-0.046-0.428-0.029-0.635 0.063-8.004 3.591-15.137 7.913-20.631 12.497-5.354 4.469-9.036 9.08-10.644 13.335-1.209 3.199-1.24 6.104-0.091 8.634 1.507 3.321 4.463 5.853 8.323 7.132 4.913 1.627 10.506 1.027 15.344-1.647 0.487-0.269 0.664-0.883 0.395-1.371-0.27-0.488-0.884-0.665-1.372-0.395-4.346 2.402-9.351 2.947-13.732 1.497-3.319-1.099-5.849-3.248-7.12-6.05-0.919-2.024-0.871-4.408 0.142-7.086 3.13-8.282 14.707-17.748 30.212-24.704 0.509-0.228 0.737-0.825 0.508-1.334-0.135-0.301-0.4-0.504-0.699-0.571" style="fill:#2e2e2e"/>
    </g>
    <g transform="translate(874.13 318.23)">
     <path d="m0 0c-13.848 0.105-13.875-6.979-13.948-14.045-0.073-7.065 2.67-10.281 13.036-10.323 10.366-0.041 14.246 5.571 13.616 14.698-0.397 5.773-6.119 9.619-12.704 9.67" style="fill:#ffffff"/>
    </g>
    <g transform="translate(868.05 316.69)">
     <path d="m0 0c-2.074-0.468-3.627-1.242-4.694-2.333-2.223-2.272-2.3-5.782-2.17-10.135 0.107-3.596 0.814-5.709 2.365-7.064 1.757-1.535 4.828-2.26 9.666-2.28 4.52-0.018 7.859 1.092 9.928 3.299 2.095 2.236 2.996 5.707 2.677 10.321-0.344 5.008-5.267 8.68-11.705 8.729-2.374 0.019-4.391-0.159-6.067-0.537m10.17-23.332c-1.504-0.339-3.176-0.505-5.011-0.498-5.425 0.022-8.813 0.879-10.986 2.778-2.016 1.761-2.929 4.311-3.055 8.525-0.139 4.672-0.029 8.769 2.745 11.605 2.332 2.385 6.329 3.523 12.22 3.478 3.473-0.027 6.762-1.051 9.262-2.885 2.655-1.947 4.232-4.691 4.441-7.725 0.359-5.195-0.724-9.178-3.219-11.84-1.579-1.685-3.721-2.835-6.397-3.438" style="fill:#2e2e2e"/>
    </g>
    <g transform="translate(947.5 228.23)">
     <path d="m0 0c-0.448-0.101-0.923 0.115-1.131 0.547-0.581 1.206-4.925 10.402-6.958 14.82-13.682 4.785-22.645 8.968-29.914 13.955-6.843 4.695-12.402 10.239-19.19 19.135-0.338 0.443-0.253 1.077 0.19 1.415 0.442 0.338 1.076 0.253 1.414-0.19 11.457-15.017 20.738-22.859 48.57-32.55l0.407-0.142 0.178-0.39c1.94-4.232 6.524-13.937 7.121-15.177 0.243-0.502 0.032-1.105-0.47-1.347-0.071-0.034-0.144-0.059-0.217-0.076" style="fill:#2e2e2e"/>
    </g>
    <g transform="translate(1019.8 286.34)">
     <path d="m0 0c9.092 30.065-0.521 48.012-9.147 66.414-8.627 18.402-26.519 34.258-29.897 44.73-4.769 14.784-7.218 27.21-15.181 27.584-11.992 0.564-17.275-18.76-12.293-35.495s16.438-38.02 17.353-46.217c-7.539-14.72-12.331-39.356-8.612-62.567z" style="fill:#ffffff"/>
    </g>
    <g transform="translate(1034.6 247.85)">
     <path d="m0 0c-0.389-0.088-0.81 0.062-1.051 0.409-5.578 8.033-9.305 17.91-11.45 24.78-2.319 7.432-3.342 13.062-3.353 13.118l-0.042 0.239 0.07 0.231c8.553 28.284 0.2 45.986-7.877 63.104-0.407 0.863-0.814 1.726-1.219 2.59-4.467 9.529-11.462 18.388-17.633 26.205-5.712 7.234-10.644 13.481-12.31 18.643-0.707 2.193-1.361 4.325-1.992 6.386-3.464 11.294-6.2 20.215-12.276 20.5-3.212 0.151-5.988-1.238-8.251-4.129-2.41-3.079-4.053-7.739-4.626-13.122-0.585-5.5-0.017-11.519 1.599-16.947 2.364-7.942 6.251-17.043 9.681-25.074 3.871-9.064 7.213-16.892 7.708-21.32l0.034-0.301-0.139-0.271c-6.991-13.649-12.335-38.098-8.515-61.947 0.088-0.55-0.284-1.068-0.837-1.157-0.549-0.087-1.067 0.288-1.156 0.837-1.757 10.968-1.727 22.996 0.084 34.782 1.618 10.524 4.628 20.498 8.487 28.128-0.579 4.197-3.803 11.747-7.523 20.457-3.45 8.08-7.361 17.238-9.759 25.29-3.502 11.765-2.116 24.879 3.372 31.889 2.653 3.388 6.088 5.082 9.936 4.901 7.495-0.352 10.414-9.872 14.11-21.925 0.63-2.054 1.282-4.178 1.984-6.357 1.554-4.816 6.382-10.932 11.973-18.012 6.24-7.903 13.311-16.86 17.876-26.599 0.405-0.862 0.811-1.724 1.218-2.586 8.217-17.416 16.713-35.425 8.055-64.311 0.464-2.406 4.604-22.722 14.428-36.871 0.319-0.457 0.206-1.086-0.252-1.405-0.111-0.076-0.231-0.128-0.354-0.155" style="fill:#2e2e2e"/>
    </g>
    <g transform="translate(928.35 429.76)">
     <path d="m0 0-5.618 2.535c-0.508 0.229-0.735 0.827-0.505 1.335 0.229 0.508 0.827 0.734 1.335 0.505l3.669-1.656 4.595 11.983c0.199 0.52 0.782 0.78 1.302 0.581 0.521-0.2 0.782-0.783 0.581-1.304z" style="fill:#2e2e2e"/>
    </g>
    <g transform="translate(923.22 440.68)">
     <path d="m0 0-33.872-7.637c-0.544-0.122-1.084 0.219-1.207 0.762-0.122 0.544 0.219 1.084 0.763 1.207l33.872 7.637c0.544 0.123 1.084-0.219 1.207-0.762 0.122-0.544-0.219-1.084-0.763-1.207" style="fill:#2e2e2e"/>
    </g>
    <g transform="translate(911.14 431.2)">
     <path d="m0 0-20.342-4.586c-0.544-0.123-1.084 0.218-1.207 0.762-0.122 0.544 0.219 1.084 0.763 1.206l20.342 4.587c0.544 0.122 1.084-0.219 1.206-0.762 0.123-0.544-0.219-1.084-0.762-1.207" style="fill:#2e2e2e"/>
    </g>
    <g transform="translate(883.49 429.19)">
     <path d="m0 0c-1.24 5.501-6.705 8.955-12.206 7.715s-8.955-6.705-7.715-12.206 6.705-8.955 12.206-7.715 8.955 6.705 7.715 12.206" style="fill:#ffffff"/>
    </g>
    <g transform="translate(871.5 435.92)">
     <path d="m0 0c-4.949-1.116-8.068-6.051-6.952-11s6.051-8.068 11-6.952 8.068 6.05 6.952 11c-1.116 4.949-6.051 8.068-11 6.952m4.491-19.921c-6.034-1.361-12.051 2.442-13.412 8.477-1.36 6.035 2.442 12.052 8.478 13.413 6.034 1.36 12.051-2.443 13.412-8.477 1.36-6.035-2.443-12.052-8.478-13.413" style="fill:#2e2e2e"/>
    </g>
   </g>
   <g clip-path="url(#clipPath1478)">
    <path d="m872.28 432.46c-1.4-0.316-2.28-1.707-1.965-3.108 0.317-1.401 1.708-2.28 3.108-1.964 1.401 0.316 2.281 1.707 1.964 3.108-0.271 1.208-1.344 2.028-2.532 2.028-0.19 0-0.382-0.021-0.575-0.064" style="fill:url(#linearGradient1488)"/>
   </g>
   <g clip-path="url(#clipPath1498)">
    <path d="m873.8 425.73c-2.364-0.534-3.922-2.792-3.579-5.191l9.04 2.039c-0.616 1.978-2.443 3.266-4.437 3.266-0.338 0-0.681-0.037-1.024-0.114" style="fill:url(#linearGradient1508)"/>
   </g>
   <g clip-path="url(#clipPath1518)">
    <g transform="translate(872.46 432.37)">
     <path d="m0 0c0.405 0.091 0.809 0.08 1.187-0.012-0.166-5e-3 -0.333-0.025-0.5-0.062-1.4-0.316-2.28-1.708-1.963-3.108 0.223-0.996 0.993-1.725 1.921-1.952-1.218-0.035-2.332 0.793-2.61 2.026-0.315 1.401 0.565 2.792 1.965 3.108" style="fill:#ffffff"/>
    </g>
    <g transform="translate(874.67 425.56)">
     <path d="m0 0c-2.289-0.516-3.823-2.652-3.605-4.966l-0.662-0.15c-0.341 2.399 1.216 4.658 3.58 5.191 0.631 0.142 1.263 0.147 1.864 0.036-0.387 0.013-0.782-0.022-1.177-0.111" style="fill:#ffffff"/>
    </g>
    <g transform="translate(872.51 431.48)">
     <path d="m0 0c-0.855-0.193-1.395-1.046-1.202-1.901 0.193-0.856 1.046-1.395 1.901-1.202 0.857 0.193 1.396 1.046 1.202 1.901-0.192 0.856-1.046 1.395-1.901 1.202m1.144-5.072c-1.942-0.438-3.877 0.785-4.315 2.727-0.437 1.941 0.786 3.876 2.727 4.314s3.877-0.785 4.314-2.727c0.439-1.941-0.785-3.876-2.726-4.314" style="fill:#2e2e2e"/>
    </g>
    <g transform="translate(871.24 421.8)">
     <path d="m0 0 6.564 1.48c-0.829 1.173-2.317 1.792-3.779 1.462-1.462-0.329-2.54-1.527-2.785-2.942m9.313 0.031-11.174-2.519-0.155 1.082c-0.412 2.898 1.501 5.673 4.358 6.317 2.855 0.644 5.775-1.041 6.645-3.836z" style="fill:#2e2e2e"/>
    </g>
    <g transform="translate(936.91 391.8)">
     <path d="m0 0-5.618 2.535c-0.508 0.229-0.735 0.827-0.505 1.335 0.229 0.508 0.827 0.734 1.335 0.505l3.669-1.656 4.595 11.983c0.199 0.52 0.783 0.78 1.302 0.581 0.521-0.2 0.782-0.783 0.581-1.304z" style="fill:#2e2e2e"/>
    </g>
    <g transform="translate(931.78 402.72)">
     <path d="m0 0-33.872-7.637c-0.544-0.123-1.084 0.219-1.207 0.762-0.122 0.544 0.219 1.084 0.763 1.207l33.872 7.637c0.544 0.122 1.084-0.219 1.207-0.763 0.122-0.543-0.219-1.083-0.763-1.206" style="fill:#2e2e2e"/>
    </g>
    <g transform="translate(919.7 393.24)">
     <path d="m0 0-20.342-4.586c-0.544-0.123-1.084 0.219-1.207 0.762-0.122 0.544 0.219 1.084 0.763 1.207l20.342 4.586c0.544 0.123 1.084-0.219 1.207-0.762 0.122-0.544-0.22-1.084-0.763-1.207" style="fill:#2e2e2e"/>
    </g>
    <g transform="translate(892.05 391.23)">
     <path d="m0 0c-1.24 5.501-6.705 8.955-12.206 7.714-5.501-1.24-8.955-6.705-7.715-12.206s6.705-8.955 12.206-7.715c5.501 1.241 8.955 6.706 7.715 12.207" style="fill:#ffffff"/>
    </g>
    <g transform="translate(880.06 397.96)">
     <path d="m0 0c-4.949-1.116-8.067-6.05-6.952-11 1.116-4.949 6.051-8.067 11-6.952 4.949 1.116 8.068 6.051 6.952 11s-6.051 8.068-11 6.952m4.491-19.921c-6.034-1.36-12.051 2.442-13.412 8.477-1.36 6.035 2.442 12.052 8.478 13.413 6.035 1.361 12.051-2.442 13.412-8.477 1.36-6.035-2.443-12.052-8.478-13.413" style="fill:#2e2e2e"/>
    </g>
   </g>
   <g clip-path="url(#clipPath1562)">
    <path d="m880.84 394.5c-1.401-0.316-2.28-1.707-1.965-3.108 0.317-1.401 1.708-2.28 3.109-1.964 1.4 0.316 2.279 1.707 1.963 3.108-0.272 1.208-1.345 2.029-2.533 2.028-0.189 0-0.382-0.02-0.574-0.064" style="fill:url(#linearGradient1572)"/>
   </g>
   <g clip-path="url(#clipPath1582)">
    <path d="m882.36 387.77c-2.363-0.533-3.921-2.792-3.579-5.191l9.04 2.039c-0.616 1.977-2.442 3.266-4.436 3.266-0.338 0-0.682-0.037-1.025-0.114" style="fill:url(#linearGradient1592)"/>
   </g>
   <g clip-path="url(#clipPath1602)">
    <g transform="translate(881.02 394.41)">
     <path d="m0 0c0.405 0.091 0.809 0.08 1.187-0.013-0.166-5e-3 -0.333-0.024-0.5-0.062-1.4-0.316-2.28-1.707-1.963-3.108 0.224-0.995 0.993-1.724 1.921-1.951-1.218-0.036-2.332 0.792-2.609 2.026-0.316 1.4 0.564 2.792 1.964 3.108" style="fill:#ffffff"/>
    </g>
    <g transform="translate(883.23 387.6)">
     <path d="m0 0c-2.289-0.517-3.823-2.653-3.605-4.967l-0.662-0.149c-0.341 2.399 1.216 4.658 3.58 5.19 0.631 0.143 1.263 0.148 1.865 0.037-0.388 0.013-0.783-0.022-1.178-0.111" style="fill:#ffffff"/>
    </g>
    <g transform="translate(881.06 393.52)">
     <path d="m0 0c-0.855-0.193-1.395-1.046-1.201-1.901 0.192-0.856 1.045-1.395 1.901-1.202s1.395 1.046 1.201 1.901c-0.192 0.856-1.046 1.395-1.901 1.202m1.144-5.072c-1.942-0.438-3.877 0.786-4.315 2.727-0.437 1.941 0.786 3.876 2.727 4.314s3.877-0.785 4.314-2.727c0.439-1.941-0.785-3.876-2.726-4.314" style="fill:#2e2e2e"/>
    </g>
    <g transform="translate(879.8 383.84)">
     <path d="m0 0 6.564 1.48c-0.829 1.172-2.317 1.791-3.779 1.462-1.462-0.33-2.539-1.527-2.785-2.942m9.313 0.03-11.173-2.519-0.156 1.083c-0.412 2.898 1.501 5.673 4.358 6.317 2.855 0.644 5.775-1.041 6.645-3.836z" style="fill:#2e2e2e"/>
    </g>
    <g transform="translate(945.35 354.36)">
     <path d="m0 0-5.618 2.535c-0.509 0.23-0.735 0.827-0.505 1.335 0.228 0.508 0.826 0.734 1.335 0.505l3.669-1.655 4.594 11.982c0.2 0.521 0.783 0.78 1.303 0.581 0.521-0.2 0.782-0.783 0.581-1.304z" style="fill:#2e2e2e"/>
    </g>
    <g transform="translate(940.22 365.28)">
     <path d="m0 0-33.872-7.637c-0.544-0.123-1.084 0.219-1.207 0.762-0.122 0.544 0.219 1.084 0.763 1.207l33.872 7.637c0.544 0.123 1.084-0.219 1.207-0.763 0.122-0.543-0.219-1.084-0.763-1.206" style="fill:#2e2e2e"/>
    </g>
    <g transform="translate(928.14 355.79)">
     <path d="m0 0-20.342-4.586c-0.544-0.123-1.084 0.219-1.207 0.763-0.122 0.543 0.219 1.084 0.763 1.206l20.342 4.587c0.544 0.122 1.084-0.22 1.206-0.763 0.123-0.544-0.219-1.084-0.762-1.207" style="fill:#2e2e2e"/>
    </g>
    <g transform="translate(900.49 353.79)">
     <path d="m0 0c-1.24 5.501-6.705 8.955-12.206 7.715s-8.955-6.705-7.715-12.206 6.705-8.955 12.206-7.715 8.955 6.705 7.715 12.206" style="fill:#ffffff"/>
    </g>
    <g transform="translate(888.51 360.52)">
     <path d="m0 0c-4.949-1.116-8.068-6.051-6.952-11s6.051-8.068 11-6.952 8.068 6.05 6.952 11c-1.116 4.949-6.051 8.067-11 6.952m4.491-19.921c-6.034-1.36-12.052 2.442-13.412 8.477s2.442 12.051 8.478 13.413c6.034 1.36 12.051-2.443 13.412-8.478 1.36-6.035-2.443-12.052-8.478-13.412" style="fill:#2e2e2e"/>
    </g>
   </g>
   <g clip-path="url(#clipPath1646)">
    <path d="m889.29 357.06c-1.401-0.316-2.28-1.707-1.964-3.108s1.706-2.28 3.107-1.964 2.28 1.706 1.964 3.108c-0.272 1.208-1.344 2.028-2.533 2.028-0.189 0-0.381-0.021-0.574-0.064" style="fill:url(#linearGradient1656)"/>
   </g>
   <g clip-path="url(#clipPath1666)">
    <path d="m890.8 350.32c-2.364-0.533-3.922-2.791-3.581-5.19l9.042 2.038c-0.616 1.978-2.443 3.267-4.437 3.267-0.338 0-0.681-0.037-1.024-0.115" style="fill:url(#linearGradient1676)"/>
   </g>
   <g clip-path="url(#clipPath1686)">
    <g transform="translate(889.47 356.96)">
     <path d="m0 0c0.405 0.091 0.809 0.08 1.187-0.013-0.166-5e-3 -0.333-0.024-0.5-0.061-1.4-0.317-2.28-1.708-1.963-3.109 0.223-0.995 0.992-1.724 1.921-1.951-1.219-0.036-2.332 0.792-2.61 2.027-0.315 1.4 0.565 2.792 1.965 3.107" style="fill:#ffffff"/>
    </g>
    <g transform="translate(891.67 350.15)">
     <path d="m0 0c-2.29-0.517-3.823-2.653-3.605-4.967l-0.662-0.149c-0.341 2.398 1.216 4.657 3.58 5.19 0.631 0.143 1.263 0.148 1.864 0.036-0.387 0.013-0.782-0.021-1.177-0.11" style="fill:#ffffff"/>
    </g>
    <g transform="translate(889.51 356.07)">
     <path d="m0 0c-0.855-0.193-1.395-1.046-1.202-1.901 0.193-0.856 1.046-1.395 1.901-1.203 0.857 0.194 1.396 1.046 1.202 1.902-0.193 0.855-1.046 1.394-1.901 1.202m1.144-5.072c-1.942-0.438-3.877 0.785-4.315 2.726-0.437 1.942 0.786 3.877 2.727 4.315 1.941 0.437 3.877-0.785 4.314-2.727 0.438-1.941-0.785-3.877-2.726-4.314" style="fill:#2e2e2e"/>
    </g>
    <g transform="translate(888.24 346.39)">
     <path d="m0 0 6.564 1.48c-0.829 1.172-2.317 1.791-3.779 1.462-1.462-0.33-2.54-1.527-2.785-2.942m9.313 0.03-11.174-2.518-0.155 1.082c-0.412 2.898 1.501 5.674 4.358 6.317 2.855 0.644 5.775-1.041 6.645-3.836z" style="fill:#2e2e2e"/>
    </g>
    <g transform="translate(953.69 317.39)">
     <path d="m0 0-5.618 2.535c-0.508 0.23-0.735 0.827-0.505 1.335 0.229 0.508 0.827 0.734 1.335 0.505l3.669-1.656 4.595 11.983c0.199 0.521 0.782 0.78 1.302 0.581 0.521-0.2 0.782-0.783 0.581-1.304z" style="fill:#2e2e2e"/>
    </g>
    <g transform="translate(948.56 328.31)">
     <path d="m0 0-33.872-7.637c-0.544-0.123-1.084 0.219-1.207 0.762-0.122 0.544 0.219 1.084 0.763 1.207l33.872 7.637c0.544 0.123 1.084-0.219 1.207-0.763 0.122-0.543-0.219-1.084-0.763-1.206" style="fill:#2e2e2e"/>
    </g>
    <g transform="translate(936.48 318.82)">
     <path d="m0 0-20.342-4.586c-0.544-0.123-1.084 0.219-1.207 0.763-0.122 0.543 0.219 1.084 0.763 1.206l20.342 4.587c0.544 0.122 1.084-0.22 1.206-0.763 0.123-0.544-0.219-1.084-0.762-1.207" style="fill:#2e2e2e"/>
    </g>
    <g transform="translate(908.83 316.82)">
     <path d="m0 0c-1.24 5.501-6.705 8.955-12.206 7.715s-8.955-6.705-7.715-12.206 6.705-8.955 12.206-7.715 8.955 6.705 7.715 12.206" style="fill:#ffffff"/>
    </g>
    <g transform="translate(896.84 323.55)">
     <path d="m0 0c-4.949-1.116-8.068-6.051-6.952-11s6.051-8.068 11-6.952c4.949 1.115 8.068 6.05 6.952 11-1.116 4.949-6.051 8.067-11 6.952m4.491-19.921c-6.034-1.361-12.051 2.442-13.412 8.477-1.36 6.035 2.442 12.051 8.478 13.413 6.034 1.36 12.051-2.443 13.412-8.478 1.36-6.035-2.443-12.052-8.478-13.412" style="fill:#2e2e2e"/>
    </g>
   </g>
   <g clip-path="url(#clipPath1730)">
    <path d="m897.62 320.09c-1.4-0.316-2.28-1.707-1.964-3.108 0.315-1.4 1.707-2.28 3.107-1.965 1.401 0.316 2.281 1.707 1.964 3.108-0.272 1.209-1.344 2.029-2.532 2.029-0.19 0-0.382-0.021-0.575-0.064" style="fill:url(#linearGradient1740)"/>
   </g>
   <g clip-path="url(#clipPath1750)">
    <path d="m899.14 313.35c-2.364-0.533-3.922-2.792-3.58-5.19l9.041 2.038c-0.616 1.977-2.443 3.267-4.436 3.267-0.339 0-0.682-0.038-1.025-0.115" style="fill:url(#linearGradient1760)"/>
   </g>
   <g clip-path="url(#clipPath1770)">
    <g transform="translate(897.8 320)">
     <path d="m0 0c0.405 0.091 0.809 0.08 1.187-0.013-0.166-5e-3 -0.333-0.024-0.5-0.061-1.4-0.317-2.28-1.708-1.963-3.109 0.223-0.995 0.993-1.724 1.921-1.951-1.218-0.036-2.332 0.792-2.61 2.026-0.315 1.401 0.565 2.792 1.965 3.108" style="fill:#ffffff"/>
    </g>
    <g transform="translate(900.01 313.18)">
     <path d="m0 0c-2.289-0.516-3.823-2.652-3.605-4.966l-0.662-0.149c-0.341 2.398 1.216 4.657 3.58 5.19 0.631 0.142 1.263 0.148 1.864 0.036-0.387 0.013-0.782-0.021-1.177-0.111" style="fill:#ffffff"/>
    </g>
    <g transform="translate(897.84 319.1)">
     <path d="m0 0c-0.855-0.193-1.395-1.046-1.202-1.901 0.193-0.856 1.046-1.395 1.901-1.203 0.857 0.194 1.396 1.046 1.202 1.902-0.192 0.855-1.046 1.394-1.901 1.202m1.144-5.072c-1.942-0.438-3.877 0.785-4.315 2.726-0.437 1.942 0.786 3.877 2.727 4.315 1.941 0.437 3.877-0.785 4.314-2.727 0.439-1.941-0.785-3.877-2.726-4.314" style="fill:#2e2e2e"/>
    </g>
    <g transform="translate(896.58 309.43)">
     <path d="m0 0 6.564 1.479c-0.829 1.173-2.317 1.792-3.779 1.462-1.462-0.329-2.54-1.526-2.785-2.941m9.313 0.03-11.174-2.518-0.155 1.082c-0.412 2.898 1.501 5.673 4.358 6.317 2.855 0.644 5.775-1.041 6.645-3.836z" style="fill:#2e2e2e"/>
    </g>
    <g transform="translate(942.69 421.33)">
     <path d="m0 0-79.372-17.896c-0.543-0.123-1.084 0.219-1.206 0.763-0.123 0.543 0.219 1.083 0.763 1.206l79.372 17.896c0.543 0.122 1.084-0.219 1.206-0.763 0.123-0.543-0.219-1.083-0.763-1.206" style="fill:#2e2e2e"/>
    </g>
    <g transform="translate(951.12 383.95)">
     <path d="m0 0-79.372-17.896c-0.544-0.122-1.084 0.219-1.206 0.763-0.123 0.544 0.219 1.084 0.763 1.207l79.371 17.895c0.544 0.123 1.084-0.219 1.207-0.762 0.122-0.544-0.219-1.084-0.763-1.207" style="fill:#2e2e2e"/>
    </g>
    <g transform="translate(959.52 346.68)">
     <path d="m0 0-79.372-17.896c-0.543-0.123-1.084 0.219-1.206 0.763-0.123 0.543 0.219 1.083 0.763 1.206l79.372 17.896c0.543 0.123 1.084-0.219 1.206-0.763 0.123-0.543-0.219-1.084-0.763-1.206" style="fill:#2e2e2e"/>
    </g>
    <g transform="translate(865.71 368.87)">
     <path d="m0 0c-15.949-0.032-16.835-6.398-16.207-14.288 0.564-7.088 2.973-10.331 14.912-10.27 11.941 0.062 17.395 3.875 16.679 14.674-0.524 7.901-7.799 9.9-15.384 9.884" style="fill:#ffffff"/>
    </g>
    <g transform="translate(858.1 367.15)">
     <path d="m0 0c-2.591-0.584-4.476-1.532-5.696-2.856-2.031-2.204-2.224-5.445-1.891-9.634 0.528-6.635 2.577-9.399 13.901-9.34 6.629 0.033 10.821 1.236 13.192 3.784 1.97 2.114 2.782 5.325 2.485 9.814-0.219 3.291-1.692 5.607-4.506 7.083-2.367 1.241-5.687 1.866-9.869 1.858-3.008-6e-3 -5.539-0.24-7.616-0.709m13.904-23.111c-2.133-0.482-4.644-0.723-7.579-0.738-6.135-0.032-9.943 0.791-12.348 2.667-2.714 2.118-3.323 5.352-3.576 8.532-0.302 3.801-0.39 8.113 2.419 11.161 2.637 2.861 7.337 4.201 14.792 4.216 4.513 9e-3 8.15-0.694 10.811-2.089 3.439-1.803 5.317-4.743 5.582-8.738 0.336-5.073-0.652-8.777-3.022-11.322-1.649-1.771-3.962-2.986-7.079-3.689" style="fill:#2e2e2e"/>
    </g>
    <g transform="translate(870.5 344.39)">
     <path d="m0 0c-15.953 0.03-16.589-6.669-16.153-15.06 0.39-7.518 3.014-10.948 14.958-10.931 11.943 0.017 17.396 5.213 16.78 14.144-0.705 10.226-7.997 11.832-15.585 11.847" style="fill:#ffffff"/>
    </g>
    <g transform="translate(863.1 342.71)">
     <path d="m0 0c-2.499-0.563-4.34-1.482-5.563-2.769-2.391-2.513-2.396-6.426-2.182-10.554 0.359-6.911 2.458-9.991 13.949-9.975 6.156 9e-3 10.584 1.414 13.158 4.176 1.995 2.141 2.875 5.132 2.617 8.89-0.66 9.561-7.398 10.892-14.581 10.907-2.913 5e-3 -5.372-0.218-7.398-0.675m12.998-24.632c-2.005-0.452-4.271-0.68-6.792-0.684-6.172-9e-3 -10.012 0.876-12.45 2.867-2.805 2.291-3.352 5.845-3.517 9.02-0.238 4.585-0.208 8.957 2.735 12.051 2.655 2.791 7.239 4.085 14.428 4.071v-1e-3c7.315-0.013 15.81-1.479 16.59-12.786 0.299-4.338-0.762-7.839-3.153-10.404-1.86-1.995-4.485-3.377-7.841-4.134" style="fill:#2e2e2e"/>
    </g>
    <g transform="translate(565.1 468.66)">
     <path d="m0 0c0-17.149-13.902-31.051-31.051-31.051s-31.051 13.902-31.051 31.051 13.902 31.051 31.051 31.051 31.051-13.902 31.051-31.051" style="fill:#B6DB7B"/>
    </g>
    <g transform="translate(565.5 473.84)">
     <path d="m0 0c0-17.149-13.902-31.051-31.051-31.051s-31.051 13.902-31.051 31.051 13.902 31.051 31.051 31.051 31.051-13.902 31.051-31.051z" style="fill:none;stroke-miterlimit:10;stroke-width:2.389;stroke:#79BA3C"/>
    </g>
    <path d="m530.97 459.9h6.966v27.866h-6.966zm10.45 6.967c0-0.397-0.241-1.182-1.51-2.028-1.244-0.829-3.163-1.455-5.457-1.455v-6.967c3.477 0 6.783 0.933 9.322 2.625 2.513 1.677 4.611 4.374 4.611 7.825zm-6.967-3.483c-3.148 0-5.444 1.157-6.421 2.283l-5.261-4.566c2.636-3.04 7.094-4.684 11.682-4.684zm-3.483-6.967h6.966v3.483h-6.966zm0 31.35h6.966v3.483h-6.966zm3.483-17.417c2.294 0 4.213-0.626 5.457-1.455 1.269-0.846 1.51-1.631 1.51-2.028h6.966c0 3.451-2.098 6.149-4.611 7.824-2.539 1.692-5.845 2.626-9.322 2.626zm0 13.934c3.148 0 5.445-1.158 6.421-2.284l5.262 4.566c-2.637 3.039-7.095 4.684-11.683 4.684zm-6.967-3.484c0 0.397 0.242 1.182 1.51 2.028 1.244 0.829 3.163 1.456 5.457 1.456v6.966c-3.477 0-6.783-0.933-9.321-2.626-2.514-1.675-4.612-4.373-4.612-7.824zm6.967-3.483c-2.294 0-4.213 0.626-5.457 1.455-1.268 0.846-1.51 1.631-1.51 2.028h-6.966c0-3.451 2.098-6.148 4.612-7.825 2.538-1.691 5.844-2.625 9.321-2.625zm-3.483-20.9c0-1.923 1.559-3.483 3.483-3.483s3.483 1.56 3.483 3.483zm6.966 34.833c0 1.924-1.559 3.483-3.483 3.483s-3.483-1.559-3.483-3.483zm-9.904-25.583c-1.26 1.453-3.461 1.609-4.914 0.348-1.452-1.261-1.609-3.461-0.347-4.914zm12.842 16.333c1.261-1.452 3.461-1.608 4.914-0.347 1.453 1.26 1.609 3.46 0.348 4.913z" style="fill:#4d6756"/>
    <g transform="translate(1046.2 105.1)">
     <path d="m0 0c0-22.148-17.955-40.103-40.103-40.103s-40.102 17.955-40.102 40.103c0 22.147 17.954 40.103 40.102 40.103s40.103-17.956 40.103-40.103" style="fill:#B6DB7B"/>
    </g>
    <g transform="translate(1046.7 111.79)">
     <path d="m0 0c0-22.147-17.954-40.103-40.103-40.103-22.147 0-40.102 17.956-40.102 40.103s17.955 40.103 40.102 40.103c22.149 0 40.103-17.956 40.103-40.103z" style="fill:none;stroke-miterlimit:10;stroke-width:3.085;stroke:#79BA3C"/>
    </g>
    <path d="m986.27 104.4h3.691v14.768h-3.691zm5.538 3.693c0-0.211-0.128-0.627-0.801-1.075-0.659-0.44-1.676-0.772-2.892-0.772v-3.691c1.843 0 3.595 0.495 4.94 1.391 1.333 0.888 2.444 2.318 2.444 4.147zm-3.693-1.847c-1.668 0-2.885 0.614-3.402 1.21l-2.788-2.419c1.397-1.61 3.76-2.482 6.19-2.482zm-1.845-3.691h3.691v1.846h-3.691zm0 16.613h3.691v1.846h-3.691zm1.845-9.23c1.216 0 2.233-0.332 2.892-0.771 0.673-0.448 0.801-0.864 0.801-1.074h3.691c0 1.828-1.111 3.258-2.444 4.146-1.345 0.897-3.097 1.391-4.94 1.391zm0 7.384c1.669 0 2.886-0.614 3.404-1.21l2.788 2.419c-1.398 1.612-3.76 2.483-6.192 2.483zm-3.691-1.846c0 0.21 0.128 0.626 0.8 1.075 0.659 0.439 1.676 0.771 2.891 0.771v3.692c-1.843 0-3.595-0.495-4.939-1.392-1.332-0.888-2.444-2.317-2.444-4.146zm3.691-1.846c-1.215 0-2.232 0.332-2.891 0.771-0.672 0.449-0.8 0.865-0.8 1.075h-3.692c0-1.829 1.112-3.258 2.444-4.147 1.344-0.896 3.096-1.391 4.939-1.391zm-1.845-11.075c0-1.02 0.826-1.846 1.845-1.846 1.02 0 1.846 0.826 1.846 1.846zm3.691 18.459c0 1.019-0.826 1.845-1.846 1.845-1.019 0-1.845-0.826-1.845-1.845zm-5.248-13.558c-0.668 0.771-1.834 0.853-2.604 0.185s-0.852-1.834-0.184-2.604zm6.806 8.656c0.667-0.77 1.834-0.852 2.603-0.184 0.771 0.668 0.853 1.834 0.185 2.603z" style="fill:#4d6756"/>
    <path d="m1005.3 104.4h3.691v14.768h-3.691zm5.538 3.693c0-0.211-0.128-0.627-0.801-1.075-0.659-0.44-1.676-0.772-2.892-0.772v-3.691c1.843 0 3.595 0.495 4.94 1.391 1.333 0.888 2.444 2.318 2.444 4.147zm-3.693-1.847c-1.668 0-2.885 0.614-3.402 1.21l-2.788-2.419c1.397-1.61 3.76-2.482 6.19-2.482zm-1.845-3.691h3.691v1.846h-3.691zm0 16.613h3.691v1.846h-3.691zm1.845-9.23c1.216 0 2.233-0.332 2.892-0.771 0.673-0.448 0.801-0.864 0.801-1.074h3.691c0 1.828-1.111 3.258-2.444 4.146-1.345 0.897-3.097 1.391-4.94 1.391zm0 7.384c1.669 0 2.886-0.614 3.404-1.21l2.788 2.419c-1.398 1.612-3.76 2.483-6.192 2.483zm-3.691-1.846c0 0.21 0.128 0.626 0.8 1.075 0.659 0.439 1.676 0.771 2.891 0.771v3.692c-1.843 0-3.595-0.495-4.939-1.392-1.332-0.888-2.444-2.317-2.444-4.146zm3.691-1.846c-1.215 0-2.232 0.332-2.891 0.771-0.672 0.449-0.8 0.865-0.8 1.075h-3.692c0-1.829 1.112-3.258 2.444-4.147 1.344-0.896 3.096-1.391 4.939-1.391zm-1.845-11.075c0-1.02 0.826-1.846 1.845-1.846 1.02 0 1.846 0.826 1.846 1.846zm3.691 18.459c0 1.019-0.826 1.845-1.846 1.845-1.019 0-1.845-0.826-1.845-1.845zm-5.248-13.558c-0.668 0.771-1.834 0.853-2.604 0.185s-0.852-1.834-0.184-2.604zm6.806 8.656c0.667-0.77 1.834-0.852 2.603-0.184 0.771 0.668 0.853 1.834 0.185 2.603z" style="fill:#4d6756"/>
    <path d="m1023.3 104.4h3.691v14.768h-3.691zm5.538 3.693c0-0.211-0.128-0.627-0.801-1.075-0.659-0.44-1.676-0.772-2.892-0.772v-3.691c1.843 0 3.595 0.495 4.94 1.391 1.333 0.888 2.444 2.318 2.444 4.147zm-3.693-1.847c-1.668 0-2.885 0.614-3.402 1.21l-2.788-2.419c1.397-1.61 3.76-2.482 6.19-2.482zm-1.845-3.691h3.691v1.846h-3.691zm0 16.613h3.691v1.846h-3.691zm1.845-9.23c1.216 0 2.233-0.332 2.892-0.771 0.673-0.448 0.801-0.864 0.801-1.074h3.691c0 1.828-1.111 3.258-2.444 4.146-1.345 0.897-3.097 1.391-4.94 1.391zm0 7.384c1.669 0 2.886-0.614 3.404-1.21l2.788 2.419c-1.398 1.612-3.76 2.483-6.192 2.483zm-3.691-1.846c0 0.21 0.128 0.626 0.8 1.075 0.659 0.439 1.676 0.771 2.891 0.771v3.692c-1.843 0-3.595-0.495-4.939-1.392-1.332-0.888-2.444-2.317-2.444-4.146zm3.691-1.846c-1.215 0-2.232 0.332-2.891 0.771-0.672 0.449-0.8 0.865-0.8 1.075h-3.692c0-1.829 1.112-3.258 2.444-4.147 1.344-0.896 3.096-1.391 4.939-1.391zm-1.845-11.075c0-1.02 0.826-1.846 1.845-1.846 1.02 0 1.846 0.826 1.846 1.846zm3.691 18.459c0 1.019-0.826 1.845-1.846 1.845-1.019 0-1.845-0.826-1.845-1.845zm-5.248-13.558c-0.668 0.771-1.834 0.853-2.604 0.185s-0.852-1.834-0.184-2.604zm6.806 8.656c0.668-0.77 1.834-0.852 2.603-0.184 0.771 0.668 0.853 1.834 0.185 2.603z" style="fill:#4d6756"/>
   </g>
  </g>
 </g>
</svg>
