<?xml version="1.0" encoding="UTF-8" standalone="no"?>
<svg
   xmlns:dc="http://purl.org/dc/elements/1.1/"
   xmlns:cc="http://creativecommons.org/ns#"
   xmlns:rdf="http://www.w3.org/1999/02/22-rdf-syntax-ns#"
   xmlns:svg="http://www.w3.org/2000/svg"
   xmlns="http://www.w3.org/2000/svg"
   xmlns:sodipodi="http://sodipodi.sourceforge.net/DTD/sodipodi-0.dtd"
   xmlns:inkscape="http://www.inkscape.org/namespaces/inkscape"
   width="74.93795mm"
   height="74.93795mm"
   viewBox="0 0 74.93795 74.93795"
   version="1.1"
   id="svg1793"
   inkscape:version="1.0.1 (3bc2e813f5, 2020-09-07)"
   sodipodi:docname="introduceTo.svg">
  <defs
     id="defs1787">
    <clipPath
       id="clipPath998">
      <path
         d="M 688.96,277.65 C 693.116,269.888 705.668,272.094 705.668,278.971 L 697.91,292.678 C 686.556,292.678 684.987,285.072 688.96,277.65"
         id="path845" />
    </clipPath>
    <linearGradient
       id="linearGradient1008"
       x2="1"
       gradientTransform="matrix(15.264,-19.175,-19.175,-15.264,689.09,290.51)"
       gradientUnits="userSpaceOnUse">
      <stop
         style="stop-color:#484857"
         offset="0"
         id="stop848" />
      <stop
         style="stop-color:#2e2e2e"
         offset="1"
         id="stop850" />
    </linearGradient>
    <clipPath
       id="clipPath1018">
      <path
         d="M 0,768 H 1366 V 0 H 0 Z"
         id="path853" />
    </clipPath>
    <clipPath
       id="clipPath1030">
      <path
         d="M 744.35,278.97 C 744.35,272.093 756.901,269.887 761.056,277.649 765.031,285.071 761.098,293.5 749.744,293.5 Z"
         id="path856" />
    </clipPath>
    <linearGradient
       id="linearGradient1040"
       x2="1"
       gradientTransform="matrix(12.191,-22.165,-22.165,-12.191,746.06,295.16)"
       gradientUnits="userSpaceOnUse">
      <stop
         style="stop-color:#484857"
         offset="0"
         id="stop859" />
      <stop
         style="stop-color:#2e2e2e"
         offset="1"
         id="stop861" />
    </linearGradient>
    <clipPath
       id="clipPath1050">
      <path
         d="M 0,768 H 1366 V 0 H 0 Z"
         id="path864" />
    </clipPath>
    <clipPath
       id="clipPath1066">
      <path
         d="M 689.9,327.77 C 688.098,319.722 689.658,308.835 690.733,299.252 L 757.913,298.325 C 758.985,308.128 760.708,319.461 758.847,327.77 756.178,339.702 743.964,350.469 723.576,350.469 703.189,350.469 692.57,339.702 689.9,327.77"
         id="path867" />
    </clipPath>
    <linearGradient
       id="linearGradient1076"
       x2="1"
       gradientTransform="matrix(54.75,-63.076,-63.076,-54.75,692.43,353.05)"
       gradientUnits="userSpaceOnUse">
      <stop
         style="stop-color:#484857"
         offset="0"
         id="stop870" />
      <stop
         style="stop-color:#2e2e2e"
         offset="1"
         id="stop872" />
    </linearGradient>
    <clipPath
       id="clipPath998-6">
      <path
         d="M 688.96,277.65 C 693.116,269.888 705.668,272.094 705.668,278.971 L 697.91,292.678 C 686.556,292.678 684.987,285.072 688.96,277.65"
         id="path845-1" />
    </clipPath>
    <linearGradient
       id="linearGradient1008-2"
       x2="1"
       gradientTransform="matrix(15.264,-19.175,-19.175,-15.264,689.09,290.51)"
       gradientUnits="userSpaceOnUse">
      <stop
         style="stop-color:#484857"
         offset="0"
         id="stop848-3" />
      <stop
         style="stop-color:#2e2e2e"
         offset="1"
         id="stop850-9" />
    </linearGradient>
    <clipPath
       id="clipPath1018-0">
      <path
         d="M 0,768 H 1366 V 0 H 0 Z"
         id="path853-4" />
    </clipPath>
    <clipPath
       id="clipPath1030-1">
      <path
         d="M 744.35,278.97 C 744.35,272.093 756.901,269.887 761.056,277.649 765.031,285.071 761.098,293.5 749.744,293.5 Z"
         id="path856-1" />
    </clipPath>
    <linearGradient
       id="linearGradient1040-7"
       x2="1"
       gradientTransform="matrix(12.191,-22.165,-22.165,-12.191,746.06,295.16)"
       gradientUnits="userSpaceOnUse">
      <stop
         style="stop-color:#484857"
         offset="0"
         id="stop859-9" />
      <stop
         style="stop-color:#2e2e2e"
         offset="1"
         id="stop861-3" />
    </linearGradient>
    <clipPath
       id="clipPath1050-7">
      <path
         d="M 0,768 H 1366 V 0 H 0 Z"
         id="path864-7" />
    </clipPath>
    <clipPath
       id="clipPath1066-8">
      <path
         d="M 689.9,327.77 C 688.098,319.722 689.658,308.835 690.733,299.252 L 757.913,298.325 C 758.985,308.128 760.708,319.461 758.847,327.77 756.178,339.702 743.964,350.469 723.576,350.469 703.189,350.469 692.57,339.702 689.9,327.77"
         id="path867-1" />
    </clipPath>
    <linearGradient
       id="linearGradient1076-6"
       x2="1"
       gradientTransform="matrix(54.75,-63.076,-63.076,-54.75,692.43,353.05)"
       gradientUnits="userSpaceOnUse">
      <stop
         style="stop-color:#484857"
         offset="0"
         id="stop870-3" />
      <stop
         style="stop-color:#2e2e2e"
         offset="1"
         id="stop872-2" />
    </linearGradient>
  </defs>
  <sodipodi:namedview
     id="base"
     pagecolor="#ffffff"
     bordercolor="#666666"
     borderopacity="1.0"
     inkscape:pageopacity="0.0"
     inkscape:pageshadow="2"
     inkscape:zoom="0.35"
     inkscape:cx="517.60081"
     inkscape:cy="1231.0089"
     inkscape:document-units="mm"
     inkscape:current-layer="layer1"
     inkscape:document-rotation="0"
     showgrid="false"
     fit-margin-top="0"
     fit-margin-left="0"
     fit-margin-right="0"
     fit-margin-bottom="0"
     inkscape:window-width="1267"
     inkscape:window-height="1198"
     inkscape:window-x="1237"
     inkscape:window-y="527"
     inkscape:window-maximized="0" />
  <metadata
     id="metadata1790">
    <rdf:RDF>
      <cc:Work
         rdf:about="">
        <dc:format>image/svg+xml</dc:format>
        <dc:type
           rdf:resource="http://purl.org/dc/dcmitype/StillImage" />
        <dc:title></dc:title>
      </cc:Work>
    </rdf:RDF>
  </metadata>
  <g
     inkscape:label="Layer 1"
     inkscape:groupmode="layer"
     id="layer1"
     transform="translate(31.115215,177.53777)">
    <g
       transform="matrix(0.35277999,0,0,-0.35277999,-6.0980019,-107.70923)"
       id="g973"
       inkscape:export-xdpi="351.48001"
       inkscape:export-ydpi="351.48001">
      <path
         d="M 0,0 V 45.063 C -54.734,75.248 -47.463,183.605 35.286,183.655 128.338,183.711 135.671,46.688 39.324,32.522 31.141,25.933 0,0 0,0"
         style="fill:#79ba3c"
         id="path971" />
    </g>
    <g
       transform="matrix(0.35277999,0,0,-0.35277999,-5.7805019,-122.87524)"
       id="g977"
       inkscape:export-xdpi="351.48001"
       inkscape:export-ydpi="351.48001">
      <path
         d="M 0,0 C -52.892,33.31 -40.689,141.59 43.27,136.31 56.314,135.49 67.521,132.206 76.871,126.974 66.474,134.288 53.333,139.053 37.459,139.967 -45.153,144.72 -58.702,36.967 -5.812,3.657 Z"
         style="fill:#ffffff"
         id="path975" />
    </g>
    <g
       transform="matrix(0.35277999,0,0,-0.35277999,-5.2160519,-149.43605)"
       id="g981"
       inkscape:export-xdpi="351.48001"
       inkscape:export-ydpi="351.48001">
      <path
         d="M 0,0 C -5.675,11.49 -4.326,19.811 -0.764,24.761 -3.276,25.91 -5.036,28.136 -5.431,28.854 1.947,32.84 1.827,34.997 5.174,37.228 0.332,39.411 -0.59,43.988 -0.764,45.066 6.422,45.002 14.134,45.107 26.288,47.767 31.758,48.963 37.598,49.361 43.566,49.028 62.283,47.983 66.948,38.998 67.601,31.708 77.788,26.677 76.313,8.872 71.525,0.024 Z"
         style="fill:#ffffff"
         id="path979" />
    </g>
    <g
       transform="matrix(0.35277999,0,0,-0.35277999,-0.2065719,-128.78783)"
       id="g985"
       inkscape:export-xdpi="351.48001"
       inkscape:export-ydpi="351.48001">
      <path
         d="M 0,0 C -1.837,-1.799 -6.325,-1.2 -6.325,-1.2 -6.325,-1.2 -18.458,-2.483 -29.047,-5.556 -25.725,-9.349 -18.93,-12.182 -16.92,-15.091 -17.989,-26.96 -16.706,-50.914 -17.35,-59.255 -21.054,-62.986 22.72,-27.139 22.72,-27.139 22.72,-27.139 50.271,-24.323 67.114,-7.001 62.443,-6.389 45.401,-2.272 45.401,-2.272 45.401,-2.272 42.394,-0.336 41.185,-0.287 39.977,-0.239 40.836,-6.067 40.574,-7.576 40.313,-9.085 39.417,-9.594 35.82,-10.678 32.224,-11.762 20.091,-14.034 13.632,-12.648 7.173,-11.263 -0.358,-7.289 -0.358,-7.289 Z"
         style="fill:#4d6656"
         id="path983" />
    </g>
    <g
       transform="matrix(0.35277999,0,0,-0.35277999,-9.2024719,-125.85976)"
       id="g989"
       inkscape:export-xdpi="351.48001"
       inkscape:export-ydpi="351.48001">
      <path
         d="M 0,0 C 11.534,3.02 24.089,4.889 24.089,4.889 24.089,4.889 23.671,7.067 25.848,8.741 L 24.022,9.035 C 22.186,7.236 19.199,6.693 19.199,6.693 19.199,6.693 7.872,5.102 -2.732,2.22 Z"
         style="fill:#ffffff"
         id="path987" />
    </g>
    <g
       transform="matrix(0.35277999,0,0,-0.35277999,4.2384481,-124.35339)"
       id="g993"
       inkscape:export-xdpi="351.48001"
       inkscape:export-ydpi="351.48001">
      <path
         d="M 0,0 C -0.071,0.012 -12.881,2.913 -12.881,2.913 -12.881,2.913 -11.61,-14.807 -10.411,-31.538 -3.351,-25.19 10.337,-13.961 10.337,-13.961 10.337,-13.961 24.024,-12.785 26.582,-10.245 27.333,-3.694 28.141,3.233 28.195,3.223 30.887,2.718 17.322,-0.199 11.392,-0.539 5.46,-0.879 0,0 0,0"
         style="fill:#1a3c26"
         id="path991" />
    </g>
    <g
       transform="matrix(0.35277999,0,0,-0.35277999,-0.3476919,-128.78783)"
       id="g997"
       inkscape:export-xdpi="351.48001"
       inkscape:export-ydpi="351.48001">
      <path
         d="M 0,0 C 0.573,-2.808 -0.287,-1.359 0.455,-7.46 1.942,-8.325 13.383,-13.19 22.931,-13.154 29.341,-13.129 38.342,-10.93 41.478,-8.816 43.852,-4.758 41.166,-1.092 41.029,-0.393 40.593,1.841 38.673,19.556 38.673,19.556 38.673,19.556 45.748,25.579 48.491,35.565 49.527,39.336 50.057,41.74 50.057,41.74 50.057,41.74 56.934,40.568 58.949,43.339 60.964,46.111 63.691,49.231 62.131,52.274 60.569,55.316 60.947,57.151 53.806,58.796 51.839,58.538 46.936,66.651 44.146,82.263 34.569,76.048 19.077,73.198 -1.995,80.989 -3.308,70.572 -9.865,58.756 -9.865,58.756 -9.865,58.756 -16.21,60.496 -19.455,51.581 -20.693,48.18 -18.336,43.323 -15.144,41.74 -11.951,40.158 -7.187,41.74 -7.187,41.74 -7.187,41.74 -4.693,32.099 -2.654,29.083 -0.614,26.068 3.46,20.094 4.009,19.556 4.558,19.017 3.792,3.318 0,0"
         style="fill:#ffffff"
         id="path995" />
    </g>
    <g
       transform="matrix(0.35277999,0,0,-0.35277999,6.9548581,-133.20111)"
       id="g1001"
       inkscape:export-xdpi="351.48001"
       inkscape:export-ydpi="351.48001">
      <path
         d="M 0,0 C -7.707,0 -14.598,3.008 -19.982,8.737 -25.11,14.194 -28.314,21.588 -29.005,29.557 -29.065,30.26 -28.545,30.88 -27.842,30.94 -27.143,31.002 -26.519,30.481 -26.458,29.777 -25.28,16.173 -15.268,2.012 0.943,2.572 15.474,3.072 26.354,14.015 28.018,29.801 28.092,30.503 28.72,31.011 29.423,30.938 30.124,30.864 30.634,30.235 30.56,29.533 29.723,21.592 26.47,14.308 21.4,9.021 16.013,3.404 8.97,0.291 1.031,0.018 0.686,0.006 0.343,0 0,0"
         style="fill:#2e2e2e"
         id="path999" />
    </g>
    <g
       transform="matrix(0.35277999,0,0,-0.35277999,-4.1224319,-142.91667)"
       id="g1005"
       inkscape:export-xdpi="351.48001"
       inkscape:export-ydpi="351.48001">
      <path
         d="M 0,0 C -5.521,0 -10.014,4.492 -10.014,10.013 -10.014,15.535 -5.521,20.027 0,20.027 0.324,20.027 0.649,20.011 0.97,19.98 1.672,19.913 2.187,19.289 2.119,18.586 2.052,17.883 1.428,17.368 0.725,17.436 0.486,17.459 0.242,17.471 0,17.471 -4.111,17.471 -7.457,14.125 -7.457,10.013 -7.457,5.901 -4.111,2.556 0,2.556 1.121,2.556 2.197,2.798 3.2,3.275 3.837,3.578 4.6,3.308 4.903,2.67 5.206,2.033 4.936,1.27 4.299,0.967 2.949,0.325 1.504,0 0,0"
         style="fill:#2e2e2e"
         id="path1003" />
    </g>
    <g
       transform="matrix(0.35277999,0,0,-0.35277999,18.631878,-142.91667)"
       id="g1009"
       inkscape:export-xdpi="351.48001"
       inkscape:export-ydpi="351.48001">
      <path
         d="M 0,0 C -1.503,0 -2.949,0.325 -4.298,0.967 -4.936,1.27 -5.206,2.033 -4.902,2.67 -4.6,3.308 -3.837,3.579 -3.199,3.275 -2.196,2.798 -1.12,2.556 0,2.556 4.112,2.556 7.457,5.901 7.457,10.013 7.457,14.125 4.112,17.471 0,17.471 -0.266,17.471 -0.533,17.457 -0.795,17.429 -1.497,17.355 -2.126,17.863 -2.2,18.565 -2.274,19.268 -1.766,19.896 -1.063,19.971 -0.713,20.008 -0.355,20.027 0,20.027 5.521,20.027 10.014,15.535 10.014,10.013 10.014,4.492 5.521,0 0,0"
         style="fill:#2e2e2e"
         id="path1007" />
    </g>
    <g
       transform="matrix(0.35277999,0,0,-0.35277999,2.8978881,-148.38476)"
       id="g1013"
       inkscape:export-xdpi="351.48001"
       inkscape:export-ydpi="351.48001">
      <path
         d="M 0,0 C 0,-1.836 -0.874,-3.325 -1.951,-3.325 -3.029,-3.325 -3.902,-1.836 -3.902,0 -3.902,1.837 -3.029,3.326 -1.951,3.326 -0.874,3.326 0,1.837 0,0"
         style="fill:#2e2e2e"
         id="path1011" />
    </g>
    <g
       transform="matrix(0.35277999,0,0,-0.35277999,11.823218,-148.38476)"
       id="g1017"
       inkscape:export-xdpi="351.48001"
       inkscape:export-ydpi="351.48001">
      <path
         d="M 0,0 C 0,-1.836 0.874,-3.325 1.951,-3.325 3.028,-3.325 3.902,-1.836 3.902,0 3.902,1.837 3.028,3.326 1.951,3.326 0.874,3.326 0,1.837 0,0"
         style="fill:#2e2e2e"
         id="path1015" />
    </g>
    <g
       transform="matrix(0.35277999,0,0,-0.35277999,6.7784681,-142.64856)"
       id="g1021"
       inkscape:export-xdpi="351.48001"
       inkscape:export-ydpi="351.48001">
      <path
         d="M 0,0 C -0.062,0 -0.124,0.004 -0.187,0.014 -1.673,0.231 -5.152,0.741 -5.301,4.264 -5.409,6.832 -3.385,8.426 -1.599,9.833 L -1.502,9.909 C -0.056,11.048 0.622,13.847 0.407,17.792 0.369,18.497 0.909,19.099 1.613,19.137 2.318,19.174 2.921,18.636 2.96,17.931 3.229,12.993 2.26,9.618 0.08,7.9 L -0.018,7.824 C -1.749,6.46 -2.797,5.548 -2.747,4.372 -2.702,3.306 -1.99,2.861 0.184,2.543 0.882,2.44 1.365,1.792 1.263,1.093 1.17,0.458 0.624,0 0,0"
         style="fill:#2e2e2e"
         id="path1019" />
    </g>
    <g
       transform="matrix(0.35277999,0,0,-0.35277999,-0.8768619,-150.50144)"
       id="g1025"
       inkscape:export-xdpi="351.48001"
       inkscape:export-ydpi="351.48001">
      <path
         d="M 0,0 C -0.273,0 -0.549,0.087 -0.782,0.268 -1.34,0.701 -1.441,1.504 -1.009,2.062 1.993,5.931 8.978,7.544 13.938,5.513 14.591,5.246 14.904,4.499 14.637,3.846 14.369,3.192 13.622,2.88 12.97,3.147 9.107,4.729 3.296,3.439 1.011,0.495 0.759,0.17 0.382,0 0,0"
         style="fill:#2e2e2e"
         id="path1023" />
    </g>
    <g
       transform="matrix(0.35277999,0,0,-0.35277999,14.892408,-150.50144)"
       id="g1029"
       inkscape:export-xdpi="351.48001"
       inkscape:export-ydpi="351.48001">
      <path
         d="M 0,0 C -0.382,0 -0.76,0.17 -1.012,0.495 -3.296,3.439 -9.106,4.729 -12.97,3.147 -13.622,2.88 -14.369,3.193 -14.637,3.846 -14.904,4.499 -14.592,5.246 -13.938,5.513 -8.978,7.544 -1.993,5.932 1.009,2.062 1.441,1.504 1.34,0.701 0.782,0.268 0.549,0.087 0.273,0 0,0"
         style="fill:#2e2e2e"
         id="path1027" />
    </g>
    <g
       transform="matrix(0.35277999,0,0,-0.35277999,7.4840281,-138.2882)"
       id="g1033"
       inkscape:export-xdpi="351.48001"
       inkscape:export-ydpi="351.48001">
      <path
         d="M 0,0 C -1.698,0 -3.406,0.292 -4.994,0.901 -5.652,1.154 -5.981,1.894 -5.729,2.553 -5.476,3.212 -4.735,3.541 -4.077,3.288 -0.08,1.752 5.027,2.719 7.55,5.489 8.024,6.011 8.833,6.049 9.355,5.574 9.877,5.099 9.915,4.29 9.439,3.768 7.233,1.344 3.644,0 0,0"
         style="fill:#2e2e2e"
         id="path1031" />
    </g>
    <g
       transform="matrix(0.35277999,0,0,-0.35277999,0.1109281,-128.76314)"
       id="g1037"
       inkscape:export-xdpi="351.48001"
       inkscape:export-ydpi="351.48001">
      <path
         d="M 0,0 C -0.301,0 -0.604,0.106 -0.847,0.321 -1.375,0.789 -1.424,1.597 -0.956,2.126 1.467,4.861 2.077,16.033 1.939,19.208 1.909,19.913 2.456,20.51 3.161,20.54 3.859,20.569 4.463,20.023 4.494,19.318 4.5,19.176 4.667,4.62 0.958,0.431 0.705,0.146 0.354,0 0,0"
         style="fill:#2e2e2e"
         id="path1035" />
    </g>
    <g
       transform="matrix(0.35277999,0,0,-0.35277999,14.327958,-128.09639)"
       id="g1041"
       inkscape:export-xdpi="351.48001"
       inkscape:export-ydpi="351.48001">
      <path
         d="M 0,0 C -0.443,0 -0.874,0.231 -1.11,0.644 -3.865,5.455 -4.225,21.326 -4.229,21.485 -4.243,22.191 -3.683,22.775 -2.977,22.79 H -2.949 C -2.256,22.79 -1.687,22.235 -1.672,21.539 -1.55,15.614 -0.686,5.047 1.108,1.914 1.459,1.301 1.246,0.52 0.634,0.169 0.434,0.055 0.215,0 0,0"
         style="fill:#2e2e2e"
         id="path1039" />
    </g>
    <g
       transform="matrix(0.35277999,0,0,-0.35277999,-3.8402119,-149.06563)"
       id="g1045"
       inkscape:export-xdpi="351.48001"
       inkscape:export-ydpi="351.48001">
      <path
         d="M 0,0 C -0.342,0 -0.683,0.136 -0.935,0.406 -1.416,0.922 -1.388,1.731 -0.872,2.212 2.36,5.229 6.667,17.164 6.937,23.856 6.966,24.562 7.566,25.11 8.267,25.082 8.972,25.053 9.521,24.458 9.492,23.752 9.216,16.928 4.903,4.106 0.872,0.344 0.626,0.114 0.312,0 0,0"
         style="fill:#2e2e2e"
         id="path1043" />
    </g>
    <g
       transform="matrix(0.35277999,0,0,-0.35277999,18.208538,-149.10796)"
       id="g1049"
       inkscape:export-xdpi="351.48001"
       inkscape:export-ydpi="351.48001">
      <path
         d="M 0,0 C -0.312,0 -0.626,0.114 -0.872,0.344 -4.95,4.15 -9.947,17.803 -9.782,24.691 -9.766,25.397 -9.181,25.953 -8.474,25.939 -7.768,25.922 -7.21,25.336 -7.227,24.63 -7.295,21.776 -6.254,17.04 -4.512,12.269 -2.79,7.559 -0.728,3.706 0.872,2.213 1.388,1.731 1.416,0.922 0.935,0.406 0.683,0.136 0.342,0 0,0"
         style="fill:#2e2e2e"
         id="path1047" />
    </g>
    <g
       transform="matrix(0.35277999,0,0,-0.35277999,7.2370781,-155.1652)"
       id="g1053"
       inkscape:export-xdpi="351.48001"
       inkscape:export-ydpi="351.48001">
      <path
         d="M 0,0 C -1.397,0 -2.802,0.057 -4.205,0.172 -14.469,1.015 -20.09,3.66 -23.447,5.241 L -23.697,5.358 C -24.336,5.658 -24.61,6.419 -24.311,7.059 -24.01,7.697 -23.248,7.972 -22.609,7.671 L -22.359,7.554 C -19.157,6.047 -13.799,3.525 -3.996,2.72 5.889,1.908 15.811,4.135 21.895,8.531 22.467,8.945 23.266,8.816 23.679,8.244 24.093,7.672 23.964,6.873 23.392,6.459 17.715,2.357 9.023,0 0,0"
         style="fill:#2e2e2e"
         id="path1051" />
    </g>
    <g
       transform="matrix(0.35277999,0,0,-0.35277999,-5.2160519,-148.98449)"
       id="g1057"
       inkscape:export-xdpi="351.48001"
       inkscape:export-ydpi="351.48001">
      <path
         d="M 0,0 C -0.471,0 -0.924,0.261 -1.146,0.712 -7.367,13.307 -5.085,21.373 -2.589,25.582 -4.646,26.886 -6.104,28.703 -6.552,29.516 L -7.173,30.645 -6.04,31.257 C -1.574,33.669 0.003,35.353 1.394,36.837 1.87,37.347 2.333,37.84 2.874,38.331 -0.891,40.889 -1.82,44.858 -2.026,46.141 L -2.267,47.636 -0.753,47.623 C 6.617,47.556 14.212,47.711 26.015,50.294 31.506,51.496 37.435,51.929 43.637,51.583 52.347,51.096 58.936,48.858 63.221,44.931 66.379,42.035 68.254,38.292 68.799,33.797 71.834,32.075 74.084,29.119 75.331,25.202 77.902,17.118 75.928,6.754 72.648,0.694 72.313,0.074 71.537,-0.158 70.916,0.178 70.295,0.515 70.064,1.29 70.4,1.911 73.349,7.359 75.225,17.102 72.895,24.427 71.763,27.984 69.791,30.479 67.033,31.841 L 66.39,32.159 66.326,32.873 C 65.451,42.658 57.556,48.245 43.494,49.03 37.523,49.364 31.826,48.949 26.561,47.796 15.374,45.349 7.896,45.034 0.866,45.056 1.437,43.341 2.738,41.006 5.698,39.672 L 7.804,38.723 5.883,37.443 C 4.767,36.699 4.068,35.954 3.26,35.09 1.947,33.688 0.344,31.977 -3.54,29.726 -2.81,28.903 -1.646,27.848 -0.233,27.202 L 1.182,26.555 0.273,25.292 C -2.099,21.997 -5.14,14.569 1.146,1.844 1.458,1.211 1.198,0.445 0.565,0.132 0.384,0.042 0.19,0 0,0"
         style="fill:#2e2e2e"
         id="path1055" />
    </g>
    <g
       transform="matrix(0.35277999,0,0,-0.35277999,0.5695381,-112.89157)"
       id="g1061"
       inkscape:export-xdpi="351.48001"
       inkscape:export-ydpi="351.48001">
      <path
         d="M 0,0 C -0.647,0 -1.202,0.49 -1.27,1.147 -1.483,3.223 -1.773,5.729 -2.08,8.382 -3.536,20.963 -5.529,38.193 -3.776,45.891 -3.62,46.579 -2.935,47.01 -2.247,46.853 -1.559,46.696 -1.127,46.011 -1.284,45.323 -2.939,38.053 -0.976,21.073 0.459,8.676 0.767,6.014 1.058,3.5 1.272,1.409 1.345,0.707 0.834,0.079 0.132,0.007 0.088,0.002 0.044,0 0,0"
         style="fill:#2e2e2e"
         id="path1059" />
    </g>
    <g
       transform="matrix(0.35277999,0,0,-0.35277999,13.798788,-120.28937)"
       id="g1065"
       inkscape:export-xdpi="351.48001"
       inkscape:export-ydpi="351.48001">
      <path
         d="M 0,0 C -0.035,0 -0.069,0.001 -0.104,0.004 -0.808,0.061 -1.332,0.677 -1.275,1.38 -0.459,11.545 0.428,19.592 1.155,23.459 1.286,24.152 1.953,24.609 2.647,24.479 3.342,24.348 3.798,23.68 3.667,22.986 2.966,19.26 2.07,11.106 1.272,1.176 1.219,0.507 0.659,0 0,0"
         style="fill:#2e2e2e"
         id="path1063" />
    </g>
    <g
       transform="matrix(0.35277999,0,0,-0.35277999,23.500238,-125.86682)"
       id="g1069"
       inkscape:export-xdpi="351.48001"
       inkscape:export-ydpi="351.48001">
      <path
         d="M 0,0 C -0.121,0 -0.244,0.018 -0.367,0.054 -1.436,0.375 -2.574,0.697 -3.752,1.012 -4.175,1.125 -11.521,2.905 -17.425,4.335 -21.919,5.424 -25.469,6.284 -25.762,6.359 -26.446,6.535 -26.858,7.231 -26.683,7.915 -26.508,8.599 -25.811,9.011 -25.127,8.836 -24.851,8.765 -20.951,7.82 -16.822,6.82 -9.298,4.997 -3.509,3.594 -3.09,3.481 -1.889,3.16 -0.726,2.831 0.367,2.503 1.043,2.3 1.427,1.588 1.225,0.912 1.059,0.358 0.55,0 0,0"
         style="fill:#2e2e2e"
         id="path1067" />
    </g>
    <g
       transform="matrix(0.35277999,0,0,-0.35277999,-10.154972,-126.31132)"
       id="g1073"
       inkscape:export-xdpi="351.48001"
       inkscape:export-ydpi="351.48001">
      <path
         d="M 0,0 C -0.551,0 -1.06,0.359 -1.225,0.914 -1.426,1.591 -1.041,2.302 -0.364,2.504 1.178,2.962 1.993,3.175 3.69,3.612 5.571,4.096 8.512,4.724 11.917,5.45 17.535,6.648 24.526,8.139 28.699,9.444 29.373,9.654 30.09,9.279 30.301,8.605 30.512,7.931 30.136,7.214 29.462,7.003 25.176,5.664 18.12,4.159 12.45,2.95 9.073,2.229 6.157,1.607 4.328,1.136 2.619,0.696 1.866,0.5 0.365,0.053 0.243,0.017 0.121,0 0,0"
         style="fill:#2e2e2e"
         id="path1071" />
    </g>
    <g
       transform="matrix(0.35277999,0,0,-0.35277999,6.7079081,-123.55611)"
       id="g1077"
       inkscape:export-xdpi="351.48001"
       inkscape:export-ydpi="351.48001">
      <path
         d="M 0,0 C -0.3,0 -0.6,0.002 -0.899,0.008 -9.159,0.157 -16.324,2.316 -21.074,6.088 -21.627,6.527 -21.72,7.331 -21.28,7.884 -20.842,8.437 -20.037,8.529 -19.484,8.09 -15.172,4.666 -8.555,2.703 -0.853,2.564 6.539,2.434 14.217,4.031 20.219,6.955 20.854,7.265 21.618,7 21.928,6.366 22.236,5.731 21.973,4.966 21.338,4.657 15.23,1.681 7.501,0 0,0"
         style="fill:#2e2e2e"
         id="path1075" />
    </g>
    <g
       transform="matrix(0.35277999,0,0,-0.35277999,-5.2513319,-145.65425)"
       id="g1081"
       inkscape:export-xdpi="351.48001"
       inkscape:export-ydpi="351.48001">
      <path
         d="M 0,0 C -0.418,0 -0.826,0.204 -1.071,0.58 -1.984,1.976 -1.992,3.771 -1.093,5.265 -0.158,6.818 1.562,7.719 3.293,7.561 3.996,7.496 4.514,6.874 4.449,6.17 4.385,5.467 3.762,4.951 3.06,5.015 2.136,5.1 1.426,4.492 1.098,3.946 0.907,3.631 0.525,2.809 1.068,1.978 1.455,1.387 1.289,0.594 0.697,0.208 0.482,0.067 0.239,0 0,0"
         style="fill:#2e2e2e"
         id="path1079" />
    </g>
    <g
       transform="matrix(0.35277999,0,0,-0.35277999,19.760768,-145.65425)"
       id="g1085"
       inkscape:export-xdpi="351.48001"
       inkscape:export-ydpi="351.48001">
      <path
         d="M 0,0 C -0.24,0 -0.482,0.067 -0.698,0.208 -1.289,0.594 -1.455,1.386 -1.069,1.978 -0.526,2.809 -0.908,3.631 -1.099,3.946 -1.427,4.492 -2.138,5.1 -3.06,5.015 -3.763,4.951 -4.385,5.467 -4.45,6.17 -4.515,6.874 -3.997,7.496 -3.294,7.561 -1.565,7.718 0.157,6.818 1.092,5.265 1.991,3.771 1.983,1.976 1.071,0.58 0.826,0.204 0.417,0 0,0"
         style="fill:#2e2e2e"
         id="path1083" />
    </g>
    <g
       transform="matrix(0.35277999,0,0,-0.35277999,6.3551281,-172.04924)"
       id="g1089"
       inkscape:export-xdpi="351.48001"
       inkscape:export-ydpi="351.48001">
      <path
         d="M 0,0 H -0.058 C -33.611,-0.021 -58.496,-18.908 -66.626,-50.523 -75.366,-84.516 -61.653,-121.346 -34.728,-136.194 L -34.066,-136.559 V -179.65 C -26.933,-173.715 -3.683,-154.383 3.178,-148.859 L 3.449,-148.641 3.794,-148.59 C 53.96,-141.214 74.085,-100.751 71.554,-66.277 69.131,-33.282 46.065,0 0,0 M -36.623,-185.1 V -138.058 C -43.603,-134.095 -49.771,-128.77 -54.963,-122.224 -60.026,-115.839 -64.051,-108.447 -66.923,-100.251 -72.551,-84.192 -73.324,-66.304 -69.102,-49.882 -65.229,-34.817 -57.408,-22.049 -46.486,-12.958 -40.566,-8.032 -33.766,-4.216 -26.272,-1.616 -18.299,1.15 -9.479,2.556 -0.06,2.561 H -0.002 C 21.45,2.561 39.892,-4.694 53.334,-18.424 65.374,-30.721 72.75,-47.647 74.104,-66.085 75.537,-85.607 70.164,-104.705 58.976,-119.86 46.471,-136.799 27.644,-147.583 4.512,-151.063 -3.965,-157.906 -34.219,-183.098 -34.526,-183.354 Z"
         style="fill:#2e2e2e"
         id="path1087" />
    </g>
    <rect
       style="fill:none;stroke:none;stroke-width:1.66634"
       id="rect4293"
       width="74.93795"
       height="74.93795"
       x="-31.115215"
       y="-177.53777"
       inkscape:export-xdpi="351.48001"
       inkscape:export-ydpi="351.48001" />
  </g>
</svg>
