<svg width="74.938mm" height="74.938mm" version="1.1" viewBox="0 0 74.938 74.938" xmlns="http://www.w3.org/2000/svg">
 <defs>
  <clipPath id="clipPath998-6-0">
   <path d="m688.96 277.65c4.156-7.762 16.708-5.556 16.708 1.321l-7.758 13.707c-11.354 0-12.923-7.606-8.95-15.028"/>
  </clipPath>
  <linearGradient id="linearGradient1008-2-1" x2="1" gradientTransform="matrix(15.264,-19.175,-19.175,-15.264,689.09,290.51)" gradientUnits="userSpaceOnUse">
   <stop style="stop-color:#484857" offset="0"/>
   <stop style="stop-color:#2e2e2e" offset="1"/>
  </linearGradient>
  <clipPath id="clipPath1018-0-4">
   <path d="m0 768h1366v-768h-1366z"/>
  </clipPath>
  <clipPath id="clipPath1030-1-3">
   <path d="m744.35 278.97c0-6.877 12.551-9.083 16.706-1.321 3.975 7.422 0.042 15.851-11.312 15.851z"/>
  </clipPath>
  <linearGradient id="linearGradient1040-7-1" x2="1" gradientTransform="matrix(12.191,-22.165,-22.165,-12.191,746.06,295.16)" gradientUnits="userSpaceOnUse">
   <stop style="stop-color:#484857" offset="0"/>
   <stop style="stop-color:#2e2e2e" offset="1"/>
  </linearGradient>
  <clipPath id="clipPath1050-7-7">
   <path d="m0 768h1366v-768h-1366z"/>
  </clipPath>
  <clipPath id="clipPath1066-8-2">
   <path d="m689.9 327.77c-1.802-8.048-0.242-18.935 0.833-28.518l67.18-0.927c1.072 9.803 2.795 21.136 0.934 29.445-2.669 11.932-14.883 22.699-35.271 22.699-20.387 0-31.006-10.767-33.676-22.699"/>
  </clipPath>
  <linearGradient id="linearGradient1076-6-1" x2="1" gradientTransform="matrix(54.75,-63.076,-63.076,-54.75,692.43,353.05)" gradientUnits="userSpaceOnUse">
   <stop style="stop-color:#484857" offset="0"/>
   <stop style="stop-color:#2e2e2e" offset="1"/>
  </linearGradient>
 </defs>
 <g transform="translate(31.115 177.54)">
  <g transform="matrix(.35278 0 0 -.35278 -5.7805 -122.88)">
   <path d="m0 0c-52.892 33.31-40.689 141.59 43.27 136.31 13.044-0.82 24.251-4.104 33.601-9.336-10.397 7.314-23.538 12.079-39.412 12.993-82.612 4.753-96.161-103-43.271-136.31z" style="fill:#ffffff"/>
  </g>
  <rect x="-31.115" y="-177.54" width="74.938" height="74.938" style="fill:none"/>
  <g transform="matrix(.35278 0 0 -.35278 39.888 -146.76)">
   <path d="m0 0-43.088 10.022c-18.965 52.9-100.79 66.978-134.12 11.619-36.155-60.056 9.125-124.37 67.419-125.62 56.297-1.21 69.809 34.626 76.066 71.475 6.78 6.606 33.721 32.504 33.721 32.504" style="fill:#79ba3c"/>
  </g>
  <g transform="matrix(.35278 0 0 -.35278 -21.373 -153.1)">
   <path d="m0 0c23.549 39.115 72.077 43.153 104.77 23.737-32.611 23.281-84.46 20.634-109.32-20.667-27.147-45.091-8.383-92.581 27.327-113.98-32.175 22.761-48.531 68.116-22.77 110.91" style="fill:#ffffff"/>
  </g>
  <g transform="matrix(.35278 0 0 -.35278 -255.78 -38.747)" clip-path="url(#clipPath998-6-0)">
   <path d="m688.96 277.65c4.156-7.762 16.708-5.556 16.708 1.321l-7.758 13.707c-11.354 0-12.923-7.606-8.95-15.028" style="fill:url(#linearGradient1008-2-1)"/>
  </g>
  <g transform="matrix(.35278 0 0 -.35278 -255.78 -38.747)" clip-path="url(#clipPath1018-0-4)">
   <g transform="translate(690.76,276.81)">
    <path d="m0 0c-3.89 7.266-2.461 14.704 8.254 15.014l-0.482 0.85c-11.353 0-12.922-7.606-8.949-15.028 0.832-1.555 2.004-2.703 3.342-3.501-0.845 0.708-1.588 1.587-2.165 2.665" style="fill:#ffffff"/>
   </g>
  </g>
  <g transform="matrix(.35278 0 0 -.35278 -255.78 -38.747)" clip-path="url(#clipPath1030-1-3)">
   <path d="m744.35 278.97c0-6.877 12.551-9.083 16.706-1.321 3.975 7.422 0.042 15.851-11.312 15.851z" style="fill:url(#linearGradient1040-7-1)"/>
  </g>
  <g transform="matrix(.35278 0 0 -.35278 -255.78 -38.747)" clip-path="url(#clipPath1050-7-7)">
   <g transform="translate(697.59,271.47)">
    <path d="m0 0c-3.638 0-7.623 1.593-9.755 5.576-2.462 4.599-2.795 9.039-0.912 12.183 1.292 2.157 4.247 4.727 10.988 4.727 0.706 0 1.279-0.572 1.279-1.278s-0.573-1.278-1.279-1.278c-4.388 0-7.429-1.205-8.795-3.485-1.41-2.353-1.055-5.875 0.972-9.662 2.077-3.881 6.526-4.769 9.781-3.953 2.187 0.549 4.523 2.064 4.523 4.67 0 0.705 0.571 1.277 1.277 1.277s1.278-0.572 1.278-1.277c0-3.359-2.534-6.165-6.456-7.149-0.909-0.228-1.891-0.351-2.901-0.351" style="fill:#2e2e2e"/>
   </g>
   <g transform="translate(752.43,271.47)">
    <path d="m0 0c-1.009 0-1.991 0.123-2.9 0.351-3.922 0.984-6.456 3.79-6.456 7.149 0 0.705 0.572 1.277 1.278 1.277 0.705 0 1.277-0.572 1.277-1.277 0-2.606 2.336-4.121 4.523-4.67 3.255-0.815 7.704 0.072 9.78 3.953 2.028 3.787 2.382 7.309 0.973 9.662-1.366 2.28-4.407 3.485-8.795 3.485-0.706 0-1.279 0.572-1.279 1.278s0.573 1.278 1.279 1.278c6.741 0 9.696-2.57 10.988-4.727 1.882-3.144 1.55-7.584-0.912-12.183-2.132-3.983-6.117-5.575-9.756-5.576" style="fill:#2e2e2e"/>
   </g>
  </g>
  <g transform="matrix(.35278 0 0 -.35278 -255.78 -38.747)" clip-path="url(#clipPath1066-8-2)">
   <path d="m689.9 327.77c-1.802-8.048-0.242-18.935 0.833-28.518l67.18-0.927c1.072 9.803 2.795 21.136 0.934 29.445-2.669 11.932-14.883 22.699-35.271 22.699-20.387 0-31.006-10.767-33.676-22.699" style="fill:url(#linearGradient1076-6-1)"/>
  </g>
  <g transform="matrix(.35278 0 0 -.35278 -11.548 -153.91)">
   <path d="m0 0c2.67 11.933 13.288 22.699 33.676 22.699 7.239 0 13.441-1.362 18.557-3.647-5.588 3.113-12.729 5.035-21.333 5.035-20.387 0-31.005-10.767-33.675-22.699-1.802-8.049-0.243-18.934 0.832-28.519l2.622-0.036c-1.06 9.245-2.397 19.494-0.679 27.167" style="fill:#ffffff"/>
  </g>
  <g transform="matrix(.35278 0 0 -.35278 22.196 -118.95)">
   <path d="m0 0c-5.319 7.688-15.216 16.001-17.785 17.437-2.57 1.437-16.356 6.448-16.356 6.448s-8.618-5.519-18.975-6.437c-10.357-0.919-14.899-0.229-18.353-0.154s-15.954 5.852-15.954 5.852-16.862-6.902-21.487-13.118c-2.908-3.908-5.919-7.996-7.558-11.382 1.81-1.433 18.917-21.556 52.702-23.819 10.917-0.731 44.318 1.58 63.766 25.173" style="fill:#1a3c26"/>
  </g>
  <g transform="matrix(.35278 0 0 -.35278 -8.9866 -126.97)">
   <path d="m0 0s-17.548-8.952-20.651-12.707c-2.328-2.815-5.443-6.519-7.547-9.623-0.701-1.035 1.059-3.349 1.363-2.858 8.921 14.393 20.496 20.319 30.298 24.09z" style="fill:#ffffff"/>
  </g>
  <g transform="matrix(.35278 0 0 -.35278 11.595 -143.54)">
   <path d="m0 0c-0.046 0-0.093 3e-3 -0.141 8e-3 -0.701 0.077-1.208 0.708-1.13 1.409 0.136 1.254 0.284 2.532 0.434 3.826 0.983 8.514 2.099 18.163 0.524 25.2-2.241 10.011-12.496 21.702-34.025 21.702-17.265 0-29.388-8.113-32.429-21.702-1.575-7.037-0.46-16.685 0.524-25.199 0.113-0.975 0.224-1.942 0.332-2.896 0.078-0.702-0.427-1.334-1.128-1.413s-1.334 0.426-1.413 1.128c-0.107 0.951-0.218 1.916-0.33 2.888-1.057 9.141-2.149 18.592-0.48 26.051 1.499 6.694 5.189 12.423 10.672 16.565 6.265 4.734 14.424 7.133 24.252 7.133 9.768 0 18.418-2.458 25.017-7.108 5.964-4.203 10.049-10.095 11.503-16.59 1.669-7.46 0.577-16.911-0.48-26.053-0.149-1.288-0.296-2.561-0.432-3.809-0.072-0.656-0.626-1.14-1.27-1.14" style="fill:#2e2e2e"/>
  </g>
  <g transform="matrix(.35278 0 0 -.35278 -5.3529 -131.47)">
   <path d="m0 0c-0.227-2.085 0.228-4.837-2.632-8.478 0.28-0.632-8.165-3.35-6.006-4.207 3.074-1.217 6.136-5.977 23.245-5.977 4.746 0 24.826 2.564 29.147 6.584 1.917 1.418-8.897 2.901-8.4 3.512-4.974 3.343-4.615 8.601-4.964 10.392-0.391 2-0.62 7.849-0.62 7.849s6.233 5.817 8.69 14.762c0.928 3.378 1.402 6.241 1.402 6.241s7.681-1.259 9.487 1.223c1.804 2.484 2.726 5.487 1.329 8.212-1.399 2.726-3.234 4.851-4.124 5.056-0.891 0.206-5.459 0.822-5.459 0.822s-17.778 2.255-29.964 19.126c-13.61-11.921-23.163-19.582-23.163-19.582s-7.465 1.944-10.371-6.043c-1.11-3.046 1.002-7.396 3.862-8.814 2.859-1.417 7.126 0 7.126 0s2.234-8.663 4.061-11.364c1.828-2.701 7.29-8.763 7.782-9.246 0.491-0.482-0.156-7.564-0.428-10.068" style="fill:#ffffff"/>
  </g>
  <g transform="matrix(.35278 0 0 -.35278 -.089455 -132.8)">
   <path d="m0 0h-0.074c-6.979 0.015-13.239 2.699-18.101 7.762-4.381 4.561-7.496 11.012-8.773 18.166-0.124 0.694 0.339 1.358 1.033 1.482 0.696 0.124 1.359-0.339 1.483-1.033 1.958-10.969 9.514-23.789 24.363-23.821h0.066c13.374 0 22.128 8.854 24.025 24.305 0.086 0.701 0.724 1.201 1.425 1.113 0.7-0.086 1.199-0.724 1.113-1.424-0.974-7.934-3.775-14.541-8.098-19.108-4.675-4.938-10.887-7.442-18.462-7.442" style="fill:#2e2e2e"/>
  </g>
  <g transform="matrix(.35278 0 0 -.35278 -10.369 -141.37)">
   <path d="m0 0c-5.02 0-9.104 4.083-9.104 9.103 0 5.019 4.084 9.102 9.104 9.102 0.292 0 0.589-0.014 0.88-0.042 0.703-0.067 1.218-0.691 1.15-1.394-0.067-0.703-0.691-1.22-1.394-1.15-0.211 0.02-0.425 0.03-0.636 0.03-3.61 0-6.547-2.937-6.547-6.546 0-3.611 2.937-6.547 6.547-6.547 0.983 0 1.929 0.212 2.809 0.631 0.637 0.303 1.4 0.033 1.703-0.605s0.032-1.4-0.605-1.703c-1.226-0.584-2.541-0.879-3.907-0.879" style="fill:#2e2e2e"/>
  </g>
  <g transform="matrix(.35278 0 0 -.35278 -11.844 -144.27)">
   <path d="m0 0c-0.699 0-1.27 0.562-1.278 1.263-0.019 1.65 0.515 3.022 1.546 3.969 0.762 0.701 2.169 1.489 4.544 1.26 0.702-0.067 1.217-0.692 1.149-1.394-0.067-0.702-0.69-1.218-1.395-1.151-0.793 0.077-1.881 0.035-2.569-0.596-0.607-0.559-0.726-1.428-0.719-2.058 8e-3 -0.706-0.557-1.285-1.263-1.293z" style="fill:#2e2e2e"/>
  </g>
  <g transform="matrix(.35278 0 0 -.35278 10.018 -141.49)">
   <path d="m0 0c-1.367 0-2.682 0.296-3.907 0.88-0.638 0.303-0.908 1.065-0.606 1.703 0.304 0.638 1.067 0.908 1.704 0.605 0.88-0.419 1.825-0.631 2.809-0.631 3.609 0 6.546 2.936 6.546 6.547 0 3.609-2.937 6.546-6.546 6.546-0.234 0-0.469-0.012-0.697-0.037-0.702-0.071-1.332 0.434-1.407 1.136s0.434 1.332 1.136 1.406c0.319 0.034 0.644 0.051 0.968 0.051 5.019 0 9.103-4.083 9.103-9.102 0-5.02-4.084-9.104-9.103-9.104" style="fill:#2e2e2e"/>
  </g>
  <g transform="matrix(.35278 0 0 -.35278 11.492 -144.39)">
   <path d="m0 0h-0.016c-0.706 8e-3 -1.271 0.587-1.263 1.293 8e-3 0.63-0.112 1.499-0.719 2.058-0.688 0.631-1.776 0.673-2.569 0.596-0.703-0.066-1.328 0.448-1.395 1.151-0.067 0.702 0.447 1.327 1.15 1.394 2.374 0.229 3.782-0.559 4.543-1.26 1.031-0.947 1.566-2.319 1.546-3.969-7e-3 -0.701-0.579-1.263-1.277-1.263" style="fill:#2e2e2e"/>
  </g>
  <g transform="matrix(.35278 0 0 -.35278 -4.0759 -146.44)">
   <path d="m0 0c0-1.646-0.783-2.979-1.748-2.979s-1.747 1.333-1.747 2.979c0 1.645 0.782 2.979 1.747 2.979s1.748-1.334 1.748-2.979" style="fill:#2e2e2e"/>
  </g>
  <g transform="matrix(.35278 0 0 -.35278 3.9393 -146.44)">
   <path d="m0 0c0-1.646 0.782-2.979 1.747-2.979 0.966 0 1.748 1.333 1.748 2.979 0 1.645-0.782 2.979-1.748 2.979-0.965 0-1.747-1.334-1.747-2.979" style="fill:#2e2e2e"/>
  </g>
  <g transform="matrix(.35278 0 0 -.35278 -.59393 -140.88)">
   <path d="m0 0c-0.062 0-0.124 5e-3 -0.187 0.014-1.246 0.182-4.557 0.667-4.695 3.933-0.099 2.368 1.742 3.819 3.367 5.099l0.087 0.067c1.261 0.993 1.85 3.461 1.659 6.949-0.038 0.706 0.502 1.308 1.207 1.346 0.708 0.039 1.307-0.502 1.346-1.206 0.243-4.47-0.641-7.53-2.63-9.097l-0.087-0.068c-1.518-1.195-2.437-1.992-2.395-2.982 0.032-0.764 0.43-1.207 2.512-1.512 0.698-0.103 1.181-0.751 1.08-1.45-0.094-0.636-0.64-1.093-1.264-1.093" style="fill:#2e2e2e"/>
  </g>
  <g transform="matrix(.35278 0 0 -.35278 -7.4308 -148.17)">
   <path d="m0 0c-0.363 0-0.724 0.153-0.977 0.452-0.456 0.539-0.388 1.345 0.15 1.802 3.484 2.951 7.935 4.3 12.873 3.894 0.703-0.057 1.227-0.674 1.17-1.377-0.058-0.705-0.675-1.227-1.378-1.17-4.309 0.351-8.014-0.757-11.013-3.298-0.24-0.203-0.533-0.303-0.825-0.303" style="fill:#2e2e2e"/>
  </g>
  <g transform="matrix(.35278 0 0 -.35278 3.8758 -149.38)">
   <path d="m0 0c-0.069 0-0.14 6e-3 -0.209 0.018-1.321 0.216-2.725 0.266-4.172 0.148-0.706-0.059-1.321 0.466-1.379 1.17-0.057 0.703 0.467 1.32 1.17 1.378 1.656 0.135 3.27 0.076 4.795-0.174 0.697-0.115 1.169-0.772 1.054-1.47-0.103-0.626-0.645-1.07-1.259-1.07" style="fill:#2e2e2e"/>
  </g>
  <path d="m9.7249-147c-0.03668 0-0.07373-0.00459-0.11077-0.01411-4.523-1.1441-7.7922-3.1373-10.847-6.6284-3.6291 3.2339-6.0057 5.1626-8.6558 6.586-0.21907 0.11783-0.49248 0.03528-0.61031-0.18415-0.11783-0.21943-0.035631-0.49248 0.1838-0.61031 2.6529-1.4249 5.0532-3.3976 8.8241-6.7698l0.34572-0.30904 0.29881 0.35349c3.0117 3.5557 6.2061 5.5556 10.682 6.688 0.24166 0.06103 0.38771 0.30656 0.32668 0.54787-0.05151 0.20426-0.23531 0.34043-0.43675 0.34043" style="fill:#2e2e2e;stroke-width:.35278"/>
  <g transform="matrix(.35278 0 0 -.35278 22.196 -118.5)">
   <path d="m0 0c-0.428 0-0.846 0.215-1.088 0.605-2.359 3.805-5.08 7.186-8.087 10.046-10.369 9.865-22.91 13.203-31.208 15.412-0.406 0.109-0.799 0.213-1.18 0.316-3.043 0.817-5.454 3.197-6.29 6.212-1.464 5.283-1.457 10.143-1.453 13.36l1e-3 0.486c0 0.706 0.573 1.278 1.279 1.278 0.705 0 1.277-0.572 1.277-1.278v-0.49c-4e-3 -3.077-0.011-7.726 1.36-12.674 0.595-2.146 2.316-3.841 4.49-4.425 0.378-0.102 0.77-0.206 1.173-0.314 8.031-2.138 21.471-5.716 32.313-16.031 3.165-3.01 6.023-6.561 8.498-10.551 0.372-0.599 0.187-1.388-0.413-1.76-0.21-0.13-0.443-0.192-0.672-0.192" style="fill:#2e2e2e"/>
  </g>
  <g transform="matrix(.35278 0 0 -.35278 -19.235 -118.29)">
   <path d="m0 0c-0.216 0-0.436 0.055-0.637 0.171-0.612 0.352-0.821 1.134-0.469 1.746 2.512 4.357 6.254 9.024 10.268 12.803 4.896 4.611 13.269 9.25 24.213 13.412 1.948 0.741 3.409 2.375 3.908 4.369 1.05 4.194 1.148 10.37 1.202 13.688 5e-3 0.304 9e-3 0.582 0.014 0.829 0.013 0.705 0.599 1.262 1.302 1.253 0.706-0.014 1.267-0.597 1.253-1.303-4e-3 -0.244-9e-3 -0.519-0.013-0.82-0.055-3.42-0.157-9.788-1.279-14.268-0.702-2.805-2.75-5.1-5.478-6.137-10.482-3.987-18.782-8.563-23.369-12.885-3.839-3.614-7.414-8.068-9.806-12.218-0.237-0.411-0.667-0.64-1.109-0.64" style="fill:#2e2e2e"/>
  </g>
  <g transform="matrix(.35278 0 0 -.35278 1.0641 -137.55)">
   <path d="m0 0c-0.671 0-1.233 0.522-1.275 1.2-0.043 0.705 0.493 1.312 1.198 1.355 2.827 0.174 5.689 1.923 5.689 4.931 0 0.706 0.573 1.279 1.279 1.279s1.278-0.573 1.278-1.279c0-4.048-3.402-7.196-8.09-7.483-0.026-2e-3 -0.053-3e-3 -0.079-3e-3" style="fill:#2e2e2e"/>
  </g>
  <g transform="matrix(.35278 0 0 -.35278 -.11415 -124.37)">
   <path d="m0 0c-9.201 0-17.787 2.312-24.851 6.691-0.599 0.372-0.784 1.161-0.412 1.76 0.372 0.601 1.16 0.785 1.76 0.413 6.657-4.129 14.779-6.307 23.503-6.307 0.093 0 0.185 0 0.277 1e-3 10.11 0.052 20.735 2.636 29.152 7.088 0.624 0.331 1.397 0.092 1.727-0.532s0.092-1.397-0.532-1.727c-8.77-4.639-19.825-7.33-30.333-7.386-0.097-1e-3 -0.194-1e-3 -0.291-1e-3" style="fill:#2e2e2e"/>
  </g>
  <g transform="matrix(.35278 0 0 -.35278 19.998 -116.31)">
   <path d="m0 0c-0.391 2.283 1.969 23.088 1.969 23.088l1.531 13.596s4.003 4.964 5.188 8.746c1.183 3.781 2.475 7.897 3.587 9.465 1.114 1.567 1.861 4.859 0.983 6.926-0.877 2.068-2.824 2.96-2.824 2.96l-1.083 1.476s0.602 3.234-0.816 4.275-3.493 1.139-3.493 1.139 2.405 9.63 2.386 10.944c-0.019 1.315 2.392 7.386 1.287 9.9-1.105 2.513-0.299 3.308-2.31 2.841-2.01-0.466-3.758-2.591-4.133-3.484s-3.075-9.576-3.075-9.576l-1.23-5.079-0.966-1.414-0.599 1.167s0.852 9.585 0.012 12.038c-0.841 2.454-0.991 4.925-2.302 5.217-1.31 0.293-3.643 0.062-4.327-2.048-0.683-2.112-1.276-9.185-1.276-9.185l0.027-12.45s-4.169-4.428-4.703-5.728c-0.534-1.299-1.199-7.242-1.204-7.353-5e-3 -0.112 0.173-11.309 0.184-12.699 9e-3 -1.392-0.047-7.008-0.413-8.383-0.365-1.376-3.818-14.561-3.818-14.561l-6.533-21.58-3.617-15.961s23.089 5.14 31.568 15.723" style="fill:#ffffff"/>
  </g>
  <g transform="matrix(.35278 0 0 -.35278 15.743 -140.63)">
   <path d="m0 0h-0.033c-0.705 0.019-1.263 0.605-1.245 1.311 0.031 1.203 0.057 2.262 0.081 3.21 0.134 5.367 0.178 7.175 0.43 11.42 0.211 3.537 0.617 5.859 1.314 7.531 1.207 2.89 3.241 3.432 4.735 3.379 2.003-0.073 3.281-1.808 3.798-5.158 0.371-2.407 0.35-5.402 0.332-7.808-5e-3 -0.684-0.01-1.329-5e-3 -1.905 0.032-4.135-0.056-6.132-0.06-6.215-0.033-0.705-0.621-1.257-1.335-1.219-0.705 0.031-1.251 0.629-1.219 1.334 1e-3 0.02 0.089 2.025 0.058 6.081-5e-3 0.594 0 1.249 4e-3 1.942 0.017 2.316 0.039 5.197-0.302 7.4-0.286 1.853-0.796 2.972-1.363 2.993-1.507 0.048-2.954-0.94-3.404-8.507-0.251-4.2-0.295-5.998-0.428-11.332-0.023-0.948-0.049-2.008-0.081-3.211-0.017-0.695-0.586-1.246-1.277-1.246" style="fill:#2e2e2e"/>
  </g>
  <g transform="matrix(.35278 0 0 -.35278 21.561 -140.99)">
   <path d="m0 0c-0.133 0-0.268 0.021-0.4 0.065-0.671 0.221-1.036 0.944-0.814 1.615 0.012 0.034 1.149 3.5 2.492 9.247 0.826 3.527 1.524 6.654 1.724 9.207 0.183 2.319-0.106 3.779-0.788 4.006-0.471 0.156-0.85 0.135-1.229-0.067-1.167-0.621-2.288-2.83-3.33-6.564-0.59-2.113-1.147-3.906-1.737-5.807-0.687-2.208-1.396-4.491-2.271-7.625-0.19-0.68-0.895-1.076-1.575-0.888-0.679 0.191-1.077 0.896-0.887 1.576 0.885 3.17 1.6 5.47 2.292 7.696 0.584 1.882 1.136 3.659 1.715 5.735 1.29 4.622 2.706 7.131 4.592 8.134 0.991 0.527 2.111 0.609 3.235 0.236 4.215-1.398 2.374-9.273 0.749-16.221-1.372-5.869-2.506-9.323-2.554-9.467-0.178-0.537-0.678-0.878-1.214-0.878" style="fill:#2e2e2e"/>
  </g>
  <g transform="matrix(.35278 0 0 -.35278 18.488 -130.93)">
   <path d="m0 0c-0.292 0-0.584 0.099-0.824 0.302-0.539 0.455-0.608 1.261-0.153 1.801 3.035 3.594 2.943 10.955-0.228 18.315-0.28 0.647 0.019 1.4 0.668 1.679 0.648 0.279 1.4-0.02 1.68-0.668 1.691-3.926 2.602-7.948 2.633-11.629 0.035-3.904-0.933-7.136-2.799-9.346-0.252-0.3-0.614-0.454-0.977-0.454" style="fill:#2e2e2e"/>
  </g>
  <g transform="matrix(.35278 0 0 -.35278 19.303 -135.34)">
   <path d="m0 0c-0.602 0-1.138 0.428-1.255 1.041-0.131 0.693 0.324 1.362 1.019 1.494 1.082 0.205 3.956 2.801 8.542 7.714 2.275 2.439 1.764 3.907 1.066 4.914-0.602 0.868-1.682 1.093-2.749 0.572-0.635-0.308-1.4-0.045-1.709 0.59-0.31 0.635-0.045 1.4 0.589 1.709 2.195 1.07 4.65 0.488 5.97-1.414 1.22-1.76 1.986-4.596-1.299-8.115-4.49-4.812-7.899-8.096-9.935-8.482-0.08-0.015-0.16-0.023-0.239-0.023" style="fill:#2e2e2e"/>
  </g>
  <g transform="matrix(.35278 0 0 -.35278 21.053 -134.56)">
   <path d="m0 0c-1.227 0-2.29 0.386-3.052 1.122-0.622 0.601-1.323 1.716-1.129 3.618 0.072 0.702 0.698 1.215 1.402 1.142 0.702-0.071 1.214-0.699 1.141-1.402-0.072-0.707 0.05-1.218 0.363-1.52 0.353-0.341 1.004-0.475 1.787-0.367 1.391 0.191 4.32 2.658 6.009 4.737 0.445 0.548 1.25 0.631 1.798 0.186s0.631-1.25 0.186-1.798c-1.094-1.346-4.845-5.274-7.646-5.658-0.294-0.04-0.581-0.06-0.859-0.06" style="fill:#2e2e2e"/>
  </g>
  <g transform="matrix(.35278 0 0 -.35278 19.998 -116.02)">
   <path d="m0 0c-0.053 0-0.106 4e-3 -0.16 0.011-0.7 0.087-1.197 0.725-1.111 1.426 2.014 16.147 3.48 35.977 3.495 36.175l0.036 0.497 0.363 0.342c3.331 3.126 4.576 7.22 5.675 10.831 0.631 2.074 1.226 4.033 2.153 5.665 2.176 3.836 1.823 7.106 1.272 8.433-0.436 1.05-1.541 1.4-2.956 0.938-0.671-0.22-1.393 0.147-1.613 0.818-0.219 0.671 0.147 1.392 0.818 1.612 2.695 0.882 5.152-0.077 6.112-2.388 0.906-2.18 1.08-6.285-1.409-10.674-0.786-1.386-1.343-3.213-1.931-5.148-1.153-3.791-2.456-8.071-6.008-11.6-0.239-3.159-1.625-21.023-3.469-35.818-0.08-0.646-0.631-1.12-1.267-1.12" style="fill:#2e2e2e"/>
  </g>
  <g transform="matrix(.35278 0 0 -.35278 8.5219 -110.38)">
   <path d="m0 0c-0.116 0-0.234 0.016-0.352 0.049-0.678 0.194-1.072 0.901-0.878 1.58 1.646 5.767 3.829 13.228 5.939 20.444 3.671 12.551 7.468 25.53 8.825 30.884 0.037 0.145 0.076 0.282 0.117 0.424 0.224 0.781 0.478 1.666 0.311 5.33-0.209 4.557-0.512 17.346 0.572 21.739 0.692 2.803 3.707 5.985 5.444 7.631 2.118 2.01 4.91 4.181 6.373 4.501 1.74 0.381 3.206-0.355 4.903-1.208 0.788-0.395 1.681-0.844 2.741-1.263 1.965-0.775 7.186-2.835 5.865-6.668-1.284-3.73-7.135-3.39-9.387-3.111-1.424-2.051-2.359-4.074-2.369-4.097-0.294-0.64-1.053-0.922-1.695-0.629-0.641 0.295-0.923 1.053-0.629 1.695 0.05 0.109 1.247 2.707 3.084 5.172l0.47 0.63 0.775-0.135c2.619-0.458 6.761-0.36 7.334 1.307 0.078 0.224 0.238 0.689-0.666 1.471-0.741 0.642-1.958 1.292-3.72 1.987-1.167 0.461-2.115 0.937-2.951 1.357-1.546 0.776-2.39 1.174-3.209 0.995-0.511-0.113-2.675-1.501-5.164-3.861-2.568-2.438-4.332-4.826-4.717-6.386-1.006-4.078-0.69-16.856-0.5-21.01 0.186-4.084-0.129-5.182-0.408-6.152-0.033-0.116-0.065-0.23-0.095-0.348-1.369-5.398-5.172-18.399-8.85-30.973-2.109-7.211-4.291-14.668-5.934-20.427-0.161-0.562-0.673-0.928-1.229-0.928" style="fill:#2e2e2e"/>
  </g>
  <g transform="matrix(.35278 0 0 -.35278 -.54807 -166.06)">
   <path d="m0 0c-21.849 0-46.393-8.634-61.498-33.723-19.035-31.619-13.226-64.768-1.441-85.248 14.032-24.386 37.476-37.676 67.797-38.433 1.061-0.027 2.114-0.04 3.144-0.04 52.355 0 65.405 33.792 71.631 70.452l0.069 0.41 0.299 0.291c5.716 5.569 26.002 25.082 32.028 30.877l-41.471 9.646-0.236 0.657c-7.574 21.128-26.14 36.729-50.937 42.805-5.947 1.457-12.533 2.306-19.385 2.306m7.92-160c-1.031 0-2.072 0.013-3.125 0.039-15.761 0.394-29.808 4.096-41.753 11.006-11.615 6.719-21.102 16.377-28.197 28.708-7.188 12.492-11.081 26.87-11.258 41.578-0.193 16.117 4.207 32.115 12.725 46.265 8.853 14.704 22.061 25.369 38.197 30.841 14.22 4.824 30.373 5.442 45.483 1.74 11.992-2.939 23.04-8.297 31.95-15.497 9.541-7.709 16.452-17.219 20.547-28.273l44.708-10.4-1.698-1.633c-0.266-0.255-26.26-25.244-33.416-32.207-2.714-15.856-7.403-35.785-19.479-50.275-6.041-7.25-13.626-12.757-22.544-16.367-9.07-3.67-19.87-5.525-32.14-5.525" style="fill:#2e2e2e"/>
  </g>
 </g>
</svg>
