<svg xmlns="http://www.w3.org/2000/svg" viewBox="0 0 156.76 156.76"><defs><style>.cls-1{fill:#e6ffe7;}.cls-2{fill:#01260e;}.cls-3{fill:#05f240;}</style></defs><g id="Layer_2" data-name="Layer 2"><g id="Layer_1-2" data-name="Layer 1"><circle class="cls-1" cx="78.38" cy="78.38" r="78.38"/><path class="cls-2" d="M60.81,110.59H49.89V43.94H60.81Z"/><path class="cls-2" d="M108.51,113.59a34,34,0,0,1-1.82,11.88,21,21,0,0,1-5,7.85,19.13,19.13,0,0,1-7.35,4.4,28.73,28.73,0,0,1-9,1.38,37.29,37.29,0,0,1-8-.88,29.4,29.4,0,0,1-7.42-2.64l2.26-9.05a28.72,28.72,0,0,0,5.54,2.27,22.85,22.85,0,0,0,6.78,1q6.15,0,9.68-3.52t3.52-12.06v-3.14a27.22,27.22,0,0,1-4.28,1.44,21.07,21.07,0,0,1-5.15.57Q76.46,113.09,71,105T65.53,82.05A64.57,64.57,0,0,1,67,67.79,30.71,30.71,0,0,1,71.51,57a19.86,19.86,0,0,1,8-6.79,27.73,27.73,0,0,1,11.94-2.32,43.8,43.8,0,0,1,9.11.94,42.17,42.17,0,0,1,8,2.45ZM97.71,58.3a20.31,20.31,0,0,0-3.4-.69,25.45,25.45,0,0,0-3-.19q-7.55,0-11,5.78T76.85,82.05q0,11.81,3.39,16.65a11.11,11.11,0,0,0,9.67,4.84A16.54,16.54,0,0,0,94,103a19,19,0,0,0,3.71-1.39Z"/><path class="cls-3" d="M55.38,32.12a7.09,7.09,0,0,1-5-2,6.91,6.91,0,0,1-2.09-5.27,6.91,6.91,0,0,1,2.09-5.27,7.37,7.37,0,0,1,10,0,6.88,6.88,0,0,1,2.1,5.27,6.88,6.88,0,0,1-2.1,5.27A7.07,7.07,0,0,1,55.38,32.12Z"/></g></g></svg>